<?xml version="1.0" encoding="utf-8"?>
<!-- Generator: Adobe Illustrator 24.1.2, SVG Export Plug-In . SVG Version: 6.00 Build 0)  -->
<svg version="1.1" id="Laag_1" xmlns="http://www.w3.org/2000/svg" xmlns:xlink="http://www.w3.org/1999/xlink" x="0px" y="0px"
	 viewBox="0 0 3678.2 2123.3" style="enable-background:new 0 0 3678.2 2123.3;" xml:space="preserve">
<style type="text/css">
	.st0{fill:#D73226;}
	.st1{fill:#B61919;}
	.st2{fill:#EFF2D1;}
	.st3{fill:#E9E8C9;}
	.st4{fill:#D9D9C3;}
	.st5{fill:#DFDEC4;}
	.st6{fill:#D7D6BC;}
	.st7{fill:#D1D5B8;}
	.st8{fill:#B7B7A1;}
	.st9{fill:none;stroke:#D1D5B8;stroke-width:2;stroke-miterlimit:10;}
	.st10{fill:#E0E2C2;}
	.st11{fill:#CCC9A2;}
	.st12{fill:#BBB98F;}
	.st13{fill:#E8EBCC;}
	.st14{fill:#272C25;}
	.st15{fill:#F04824;}
	.st16{fill:#C72C21;}
</style>
<g id="Wolkjes_achter_gebouw">
	<path id="Wolk_2" class="st0" d="M2215.9,135.4c0,0-4-35,32-45c0,0,50-148,111-57c0,0,18-18,25,7L2215.9,135.4z"/>
	<path id="Wolk_1" class="st0" d="M1520.1,559.3c0,0-6.3-55,50.3-70.7c0,0,78.6-232.5,174.4-89.6c0,0,28.3-28.3,39.3,11
		L1520.1,559.3z"/>
</g>
<g id="Onderrivier">
	<path id="Ondergrond_onderrivier" class="st0" d="M1818.1,908.1c-51,25.3-102,50.7-153,76l666.6,379h162.4v-404l-146.4-77l-39.1,25
		c0,0,19-140-103.2-66l83.2,55l3,210l-68.2,36l-40.1-19.6v43.6l-64.2,33c-74-40.7-148.1-81.3-222.1-122c1.5-6.3,10.7-49.8-18-88
		c-21.9-29-52.2-37-61-39C1818.1,936.1,1818.1,922.1,1818.1,908.1z"/>
	<path id="Onderrivier_3" class="st1" d="M2202.1,845.9c0,0,120-84.1,108.4,71.2c0,0.3-21.1-11.9-21.1-11.9L2202.1,845.9"/>
	<path id="Onderrivier_2_1_" class="st1" d="M1818.1,910.9l0.3-27.2l-53.3,26.4c0,0-106-74-95,77L1818.1,910.9z"/>
	<polygon id="Lengte_onderrivier" class="st0" points="2331.7,1363.1 6228.5,3549.6 6228.5,3059.5 2494.1,959.1 2494.1,1363.1 	"/>
</g>
<g id="Gebouw">
	<polyline id="_x31_" class="st2" points="1811.1,95.1 1969.7,6.1 2118.1,95.1 1954.3,185.5 1811.1,95.1 	"/>
	<path id="_x33_" class="st2" d="M2155.1,174.1l40,27l-132,76v226l132-74l115,61l-176,98l-148.3-82.8l-158.7,1.8l-161-91l145-83
		c42.3,20,84.7,40,127,60c22.7-45.7,45.3-91.3,68-137L2155.1,174.1z"/>
	<path id="_x32_" class="st3" d="M1851.1,72.1c50.1,28,100.3,56.1,150.4,84.1l-48.4,28.2l0.4,93.6c7.9,35.3,15.7,70.7,23.6,106
		c32.2,0.2,60-22.6,66.2-53.7c5.9-29.6-9.2-60.1-36.8-73.5l149-82.5c0,0-3-61.4-40-80.5l-102,54.3l-150-83.5
		C1859.4,67.2,1855.2,69.7,1851.1,72.1z"/>
	<g id="Torentjes_op_3">
		<path class="st4" d="M2099.1,236.5c-2.4,1.5-6.1,3.3-10.9,4.1c-10.3,1.7-18.4-2.6-21.1-4.1v-14c0,0,15-23,32,0
			C2099.1,227.1,2099.1,231.8,2099.1,236.5z"/>
		<path class="st4" d="M2143.1,210.5c-2.4,1.5-6.1,3.3-10.9,4.1c-10.3,1.7-18.4-2.6-21.1-4.1v-14c0,0,15-23,32,0
			C2143.1,201.1,2143.1,205.8,2143.1,210.5z"/>
	</g>
	<path id="_x34_" class="st5" d="M1666.1,416.1v242l161,91l161-92c0,0,69,3,47,93l35,18v-216l-84.3-46.8l-158.7,1.8L1666.1,416.1z"
		/>
	<polyline id="_x36_" class="st2" points="2132.9,743.3 2310,645.9 2349,670.2 2178.9,768.7 2132.9,743.3 	"/>
	<polyline id="_x35_" class="st3" points="2131.1,589.6 2310.1,490.1 2310.1,647.6 2131.1,747.1 2131.1,589.6 	"/>
	<polygon id="_x38_" class="st2" points="1666.1,658.1 1827.1,749.1 1768.1,781.1 1607.1,690.1 	"/>
	<path id="_x39_" class="st5" d="M1607.1,690.1l161,91l-3,129c0,0-106-74-95,77l-63-34V690.1z"/>
	<path id="_x31_8" class="st3" d="M2180.1,768.1l169-98v217l-39,23c0,0,16-143-103-65l-27-15V768.1"/>
	<path id="_x37_" class="st2" d="M1767.1,781.6l221.3-124.5c0,0,69.4,2,46.3,92.1l65.4,35.4l-65.4,36.4l-135.8-77.9v70.8l-40.2-23.3
		l-40.2,26.3v66.8l-54.4,28.4L1767.1,781.6z"/>
	<polyline id="_x31_4" class="st6" points="2229.1,934.4 2229.1,1026.1 2183.2,956.1 2052.1,876.9 2095.5,855.1 2229.1,934.4 	"/>
	<polygon id="_x31_3" class="st2" points="2057.1,878.1 2183.1,955.1 2121.1,988.1 2078.1,962.1 2034.1,988.1 1993.1,964.1 
		1995.1,867.1 2034.1,890.1 	"/>
	<polygon id="_x31_1" class="st6" points="2078.1,962.1 2078.1,1034.1 2034.1,1056.1 2034.1,987.1 	"/>
	<path id="_x31_0" class="st5" d="M2078.1,962.1l43,26v214l-224-125c0,0,17-103-79-127v-134l111,62.2v47.8l-30-17v69l135,78l44-22
		V962.1z"/>
	<polygon id="_x31_2" class="st2" points="1818.1,816.1 1860.1,789.1 1899.1,813.1 1929.1,830.1 1929.1,878.3 	"/>
	<g id="Ramen_3">
		<polygon class="st7" points="2007.1,351.7 2015.1,355.7 2015.1,399.7 2007.1,395.7 		"/>
		<polygon class="st7" points="2035.1,366.1 2043.1,370.1 2043.1,414.1 2035.1,410.1 		"/>
		<polygon class="st7" points="2035.1,437.7 2043.1,441.7 2043.1,485.7 2035.1,481.7 		"/>
		<polygon class="st7" points="2007.1,422.7 2015.1,426.7 2015.1,470.7 2007.1,466.7 		"/>
		<polygon class="st7" points="1980.1,410.7 1988.1,414.7 1988.1,458.7 1980.1,454.7 		"/>
	</g>
	<g id="Hekje_naast_kerk">
		<polygon class="st7" points="1724.1,412.1 1799.1,455.1 1799.1,460.1 1721.1,415.1 		"/>
		<rect x="1721.1" y="412.1" class="st7" width="4" height="18"/>
		<rect x="1728.1" y="416.1" class="st7" width="4" height="18"/>
		<rect x="1736.1" y="420.1" class="st7" width="4" height="18"/>
		<rect x="1743.1" y="425.1" class="st7" width="4" height="15"/>
		<rect x="1750.1" y="430.1" class="st7" width="4" height="15"/>
		<rect x="1758.1" y="434.1" class="st7" width="4" height="15"/>
		<rect x="1766.1" y="438.1" class="st7" width="4" height="15"/>
		<rect x="1773.1" y="442.1" class="st7" width="4" height="15"/>
		<rect x="1780.1" y="447.1" class="st7" width="4" height="15"/>
		<rect x="1788.1" y="452.1" class="st7" width="4" height="15"/>
		<rect x="1795.1" y="455.1" class="st7" width="4" height="15"/>
	</g>
	<g id="Fiets">
		<polygon class="st8" points="2119.1,553.1 2152.1,534.1 2154.1,538.1 2121.1,557.1 		"/>
		<polygon class="st8" points="2151.1,544.1 2136.1,553.1 2138.1,556.1 2153.1,548.1 		"/>
		<polygon class="st8" points="2153.1,551.1 2129.1,565.1 2132.1,569.1 2155.1,556.1 		"/>
		
			<rect x="2173.5" y="506.9" transform="matrix(0.8228 -0.5684 0.5684 0.8228 98.7335 1332.4733)" class="st7" width="25" height="2"/>
		
			<rect x="2179.8" y="507.1" transform="matrix(0.8097 -0.5869 0.5869 0.8097 109.8925 1378.7844)" class="st7" width="1.9" height="25.8"/>
		
			<rect x="2183.4" y="505.9" transform="matrix(8.710764e-02 -0.9962 0.9962 8.710764e-02 1499.9242 2650.1172)" class="st7" width="25" height="1.6"/>
		
			<rect x="2203.4" y="497.4" transform="matrix(0.8097 -0.5869 0.5869 0.8097 119.0025 1391.1733)" class="st7" width="2" height="29.5"/>
		
			<rect x="2161" y="526.6" transform="matrix(8.710764e-02 -0.9962 0.9962 8.710764e-02 1459.601 2647.8245)" class="st7" width="27.1" height="1.9"/>
		<ellipse transform="matrix(0.5 -0.866 0.866 0.5 656.0162 2170.7908)" class="st8" cx="2208" cy="517.3" rx="12.5" ry="10.1"/>
		
			<ellipse transform="matrix(0.8903 -0.4554 0.4554 0.8903 6.8686 1044.7157)" class="st8" cx="2171.7" cy="508.1" rx="5.5" ry="2"/>
		<path class="st9" d="M2187.1,494.1c0,0,15.9-4,15,7"/>
		
			<ellipse transform="matrix(0.8903 -0.4554 0.4554 0.8903 12.5461 1057.0815)" class="st8" cx="2200.2" cy="502.5" rx="3.3" ry="1.8"/>
		
			<ellipse transform="matrix(0.8903 -0.4554 0.4554 0.8903 14.4629 1049.439)" class="st8" cx="2185.3" cy="494.7" rx="3.3" ry="1.8"/>
		<rect x="2184.1" y="530.1" transform="matrix(0.866 -0.5 0.5 0.866 27.3358 1165.2876)" class="st8" width="8" height="3"/>
		
			<ellipse transform="matrix(0.6663 -0.7457 0.7457 0.6663 320.4763 1796.4142)" class="st8" cx="2167.3" cy="540.1" rx="12.5" ry="10.1"/>
		<polygon class="st7" points="2195.1,519.1 2194,518.5 2176.1,532.1 2177.2,533 		"/>
	</g>
	<g id="Kerk">
		<g>
			<rect x="1773.1" y="368.1" class="st8" width="4" height="18"/>
			<rect x="1806.1" y="362.1" class="st8" width="4" height="18"/>
			<rect x="1839.1" y="399.1" class="st8" width="4" height="18"/>
			<path class="st7" d="M1760.1,412.1v-28c0,0,15-21,27,0l1,2c0,0,19-33,38,0v25c0,0,17-16,27,7v30c0,0-10,8-20,5L1760.1,412.1z"/>
			<path class="st8" d="M1777.1,375.1c1.2,0.4,2.7,1.1,4.1,2.1c4.6,3.2,6.3,8,6.9,9.9c0,7.7,0,15.3,0,23c-3.7-1.7-7.3-3.3-11-5
				C1777.1,395.1,1777.1,385.1,1777.1,375.1z"/>
			<rect x="1767.1" y="392.1" class="st8" width="11" height="4"/>
			<rect x="1802.1" y="394.1" class="st8" width="17" height="4"/>
			<rect x="1833.1" y="422.1" class="st8" width="17" height="4"/>
			<polygon class="st8" points="1795.1,414.1 1804.1,421.1 1804.1,436.8 1794.7,431.5 			"/>
			<path class="st8" d="M1810.1,380.1v-9c0,0,14,6,16,15v44h-12v-36C1814.1,394.1,1814.1,380.1,1810.1,380.1z"/>
			<path class="st8" d="M1843.1,417.1v-10.6c0,0,7,3.6,10,11.6v30c0,0-11.8,8.4-21.4,4.2l0.4-11.2h11V417.1z"/>
		</g>
		<polyline class="st10" points="1791.2,430 1862.9,487.1 1902.4,465.1 1853.1,448.1 		"/>
	</g>
	<g id="Bank_links">
		<g>
			<polygon class="st8" points="2141.1,473.1 2111.1,490.1 2111.1,507.1 2115.1,507.1 2115.1,498.1 2141.1,482.1 			"/>
			<polygon class="st7" points="2148.1,486.1 2141.1,482.1 2115.1,498.1 2121.1,503.1 			"/>
			<polygon class="st8" points="2148.1,486.1 2148.1,496.1 2144.1,496.1 2144.1,488.6 			"/>
			<polygon class="st8" points="2122.1,502.5 2122.1,512.1 2118.1,512.1 2118.1,500.6 2121.1,503.1 			"/>
		</g>
		<polygon class="st10" points="2118.1,512.1 2126.1,518.1 2129.1,516.1 2122.1,510.8 2122.1,512.1 		"/>
		<polygon class="st10" points="2144.1,496.1 2152.1,502.1 2155.1,500.1 2148.1,494.8 2148.1,496.1 		"/>
	</g>
	<g id="Bank_rechts">
		<g>
			<polygon class="st8" points="2200.2,439.2 2170.2,456.2 2170.2,473.2 2174.2,473.2 2174.2,464.2 2200.2,448.2 			"/>
			<polygon class="st7" points="2207.2,452.2 2200.2,448.2 2174.2,464.2 2180.2,469.2 			"/>
			<polygon class="st8" points="2207.2,452.2 2207.2,462.2 2203.2,462.2 2203.2,454.8 			"/>
			<polygon class="st8" points="2181,468.8 2181.1,477.1 2177.1,477.1 2177.1,466.7 2180.1,469.1 			"/>
		</g>
		<polygon class="st10" points="2177.1,477.1 2185.1,483.1 2188.1,481.1 2181.1,475.8 2181.1,477.1 		"/>
		<polygon class="st10" points="2203.1,462.1 2211.1,468.1 2214.1,466.1 2207.1,460.8 2207.1,462.1 		"/>
	</g>
	<path id="Schaduw_wolk_voorgrond_5" class="st7" d="M2310.1,489.8c-20,28.7-32.2,64.7-32.2,64.7c-41.3,11.5-36.7,51.6-36.7,51.6
		l68.9-38.9V489.8L2310.1,489.8z"/>
	<path id="_x31_6" class="st2" d="M2098.6,784.1l191.5,114.7l-63,35l-128-77L2098.6,784.1 M2098.6,784.1l105.3,63.1l3.1-2.4
		L2098.6,784.1z"/>
	<g id="Ramen_5">
		<polygon class="st7" points="2235.1,650.1 2235.1,638.1 2246.1,633.1 2246.1,645.1 		"/>
		<polygon class="st7" points="2251.1,643.2 2251.1,631.2 2262.1,626.2 2262.1,638.2 		"/>
		<polygon class="st7" points="2266.1,636.2 2266.1,624.2 2277.1,619.2 2277.1,631.2 		"/>
		<polygon class="st7" points="2236.1,668.2 2236.1,656.2 2247.1,651.2 2247.1,663.2 		"/>
		<polygon class="st7" points="2252.1,661.3 2252.1,649.3 2263.1,644.3 2263.1,656.3 		"/>
		<polygon class="st7" points="2267.1,654.3 2267.1,642.3 2278.1,637.3 2278.1,649.3 		"/>
	</g>
	<g id="Uithangbord">
		<polygon class="st8" points="2197.1,615.1 2209.1,623.1 2206.1,627.1 2194.1,619.1 		"/>
		<polygon class="st8" points="2197,658.7 2209,666.7 2206,670.7 2194,662.7 		"/>
		<polygon class="st2" points="2205.9,621 2206.1,671.1 2225.1,680.1 2226.1,630.1 		"/>
		<path class="st11" d="M2222.1,672.1l-9-4v-19c0,0,1-2,3-1v-12l4,1v12c0,0,2,0,2,2S2222.1,672.1,2222.1,672.1z"/>
	</g>
	<g id="Deur_5">
		<path class="st7" d="M2156.1,689.1c0,1,0,41.5,0,41.5l31-17.5v-39L2156.1,689.1z"/>
		<path class="st7" d="M2156.1,682.1c0,0,16-45,29-14L2156.1,682.1z"/>
	</g>
	<g id="Driehoekjes_4">
		<polygon class="st8" points="2014.1,601.1 2026.1,608.1 2017.1,613.1 		"/>
		<polyline class="st8" points="2017.2,628.5 2014.2,616.5 2026.2,623.5 		"/>
		<polyline class="st8" points="2017.2,645.5 2014.2,633.5 2026.2,640.5 		"/>
	</g>
	<g id="Ramen_4">
		<polygon class="st7" points="1687.1,473.1 1701.1,482.1 1701.1,522.1 1687.1,515.1 		"/>
		<polygon class="st7" points="1721.1,493.7 1735.1,502.7 1735.1,542.7 1721.1,535.7 		"/>
		<polygon class="st7" points="1755.1,511.7 1769.1,520.7 1769.1,560.7 1755.1,553.7 		"/>
		<polygon class="st7" points="1788.1,530.7 1802.1,539.7 1802.1,579.7 1788.1,572.7 		"/>
		<polygon class="st7" points="1688.1,540.9 1702.1,549.9 1702.1,589.9 1688.1,582.9 		"/>
		<polygon class="st7" points="1722.1,561.5 1736.1,570.5 1736.1,610.5 1722.1,603.5 		"/>
		<polygon class="st7" points="1756.1,579.5 1770.1,588.5 1770.1,628.5 1756.1,621.5 		"/>
		<polygon class="st7" points="1789.1,598.5 1803.1,607.5 1803.1,647.5 1789.1,640.5 		"/>
	</g>
	<g id="Ramen_9">
		<polygon class="st7" points="1636.1,740.1 1644.1,745.1 1644.1,788.1 1636.1,784.1 		"/>
		<polygon class="st7" points="1664.1,755.4 1672.1,760.4 1672.1,803.4 1664.1,799.4 		"/>
		<polygon class="st7" points="1693.1,772.4 1701.1,777.4 1701.1,820.4 1693.1,816.4 		"/>
		<polygon class="st7" points="1721.1,788.4 1729.1,793.4 1729.1,836.4 1721.1,832.4 		"/>
		<polygon class="st7" points="1664.1,824.6 1672.1,829.6 1672.1,872.6 1664.1,868.6 		"/>
		<polygon class="st7" points="1635.1,808.6 1643.1,813.6 1643.1,856.6 1635.1,852.6 		"/>
		<polygon class="st7" points="1635.1,878.9 1643.1,883.9 1643.1,926.9 1635.1,922.9 		"/>
	</g>
	<g id="Soort_brug">
		<polygon class="st7" points="1661.2,677.4 1777.2,744.4 1767.2,749.4 1653.2,682.4 		"/>
		<polygon class="st7" points="1659.5,686.1 1659.2,700.4 1655.2,700.4 1655.2,683.5 		"/>
		<polygon class="st7" points="1664.2,688.8 1664.2,697.4 1668.2,697.4 1668.2,691.2 		"/>
		<polygon class="st7" points="1767.2,749.4 1767.2,760.4 1771.2,758.4 1771.2,747.4 		"/>
		<polygon class="st7" points="1777.2,744.4 1777.2,755.4 1774.2,757.4 1774.2,745.9 		"/>
		<polygon class="st10" points="1655.2,700.4 1672.2,693.5 1767.2,749.4 1767.2,760.4 		"/>
		<polygon class="st8" points="1661.2,679.4 1688.2,649.4 1688.2,638.4 1693.2,638.4 1693.2,650.4 1713.2,708.4 1738.2,676.4 
			1738.2,664.4 1743.2,664.4 1743.2,676.4 1768.2,740.4 1764.2,740.4 1743.2,687.4 1743.2,726.4 1739.2,723.4 1739.2,682.4 
			1717.2,710.4 1707.2,705.4 1692.2,660.4 1692.2,698.4 1687.2,695.4 1687.2,655.4 1665.2,681.4 		"/>
	</g>
	<g id="Decoratie_7">
		<polygon class="st7" points="1963.1,693.1 1954.1,697.1 1971.1,700.1 1978.1,697.1 		"/>
		<polygon class="st7" points="1947.6,700.5 1938.6,704.5 1955.6,707.5 1962.6,704.5 		"/>
		<polygon class="st7" points="1935.6,707.5 1926.6,711.5 1943.6,714.5 1950.6,711.5 		"/>
		<polygon class="st7" points="1918.6,716.5 1909.6,720.5 1926.6,723.5 1933.6,720.5 		"/>
		<polygon class="st7" points="1903.6,724.5 1894.6,728.5 1911.6,731.5 1918.6,728.5 		"/>
		<polygon class="st7" points="1889.6,732.5 1880.6,736.5 1897.6,739.5 1904.6,736.5 		"/>
	</g>
	<g id="Ramen_10">
		<polygon class="st7" points="1923.1,1026.1 1923.1,1065.1 1967.1,1090.1 1967.1,1050.1 		"/>
		<polygon class="st7" points="1986.1,1061.5 1986.1,1100.5 2030.1,1125.5 2030.1,1085.5 		"/>
		<polygon class="st7" points="2052.1,1098.5 2052.1,1137.5 2096.1,1162.5 2096.1,1122.5 		"/>
		<polygon class="st7" points="1837.1,846.7 1837.1,885.7 1881.1,910.7 1881.1,870.7 		"/>
		<polygon class="st7" points="1837.1,901.7 1837.1,940.7 1881.1,965.7 1881.1,925.7 		"/>
	</g>
	<polygon id="Decoratie_12" class="st7" points="1850.1,795.5 1912.1,830.1 1897.1,835.1 1837.1,803.9 	"/>
	<g id="Decoratie_13">
		<polyline class="st7" points="2034.1,890.1 2056.1,905.1 2045.1,913.1 2023.1,900.1 2025.2,884.6 2034.1,890.1 		"/>
		<polygon class="st7" points="2072.1,917.1 2133.1,952.1 2120.1,957.1 2063.1,924.1 		"/>
	</g>
	<g id="Stoplicht">
		<polygon class="st3" points="2219.1,859.1 2231.1,866.1 2224.1,869.1 2225.1,895.1 2220.1,893.1 2220.1,870.1 2211.1,864.1 		"/>
		<polygon class="st7" points="2231.1,866.1 2231.1,892.1 2225.1,895.1 2224.1,869.1 		"/>
		<polygon class="st7" points="2224.1,894.7 2224.1,906.1 2227.1,906.1 2227.1,911.1 2219.1,911.1 2219.1,906.1 2221.1,906.1 
			2221.1,893.5 		"/>
		<polygon class="st7" points="2211.1,864.1 2211.1,867.1 2209.1,867.1 2209.1,871.1 2213.1,871.1 2213.1,876.1 2209.1,876.1 
			2209.1,881.1 2213.1,881.1 2213.1,885.1 2209.1,885.1 2209.1,889.1 2215.1,893.1 2220.1,893.1 2220.1,870.1 		"/>
	</g>
	<polygon id="Decoratie_op_16" class="st7" points="2128.5,832.4 2190.5,867.4 2177.5,872.4 2119.5,840.4 	"/>
	<polyline id="_x31_9" class="st2" points="2155.5,289.8 2175.1,305.1 2131.1,331.1 2131.1,303.1 2155.5,289.8 	"/>
	<polyline id="_x32_0" class="st2" points="2170.1,346.8 2195.1,364.1 2129.1,400.1 2129.1,369.1 2170.1,346.8 	"/>
	<polyline id="_x31_7" class="st5" points="2185.1,1081.1 2225.1,1145.1 2185.1,1125.5 2185.1,1081.1 	"/>
	<polyline id="_x31_5" class="st3" points="2098.6,784.4 2034.1,820.1 2034.1,890.1 2099.1,857.1 2098.6,784.4 	"/>
	<g id="Tafels_6">
		<ellipse class="st7" cx="2235.5" cy="702.7" rx="13" ry="5.6"/>
		<polygon class="st12" points="2234.6,708.3 2234.6,719.5 2231.9,719.5 2231.9,723.6 2239.2,723.6 2239.2,719.3 2236.5,719.4 
			2236.5,708.3 		"/>
		<ellipse class="st7" cx="2265" cy="691" rx="13" ry="5.6"/>
		<polygon class="st12" points="2264.1,696.6 2264.1,707.8 2261.4,707.8 2261.4,711.9 2268.7,711.9 2268.7,707.6 2266,707.7 
			2266,696.6 		"/>
		<ellipse class="st7" cx="2291.5" cy="677.8" rx="13" ry="5.6"/>
		<polygon class="st12" points="2290.7,683.4 2290.7,694.6 2287.9,694.6 2287.9,698.6 2295.2,698.6 2295.2,694.3 2292.5,694.5 
			2292.5,683.4 		"/>
	</g>
	<path id="Schaduw_trein" class="st13" d="M1979.7,751.6l55.7-2.4c0,0,6.3-17.1,4.4-39.8l-2.1,13.7L1979.7,751.6z"/>
	<g id="Schaduw_tafels">
		<polygon class="st13" points="2231.9,723.6 2242.9,731.7 2249.1,728.1 2239.2,719.3 2239.2,723.6 		"/>
		<path class="st13" d="M2261.4,712c2.3,1.7,4.6,3.4,6.8,5c2.2-1.3,4.5-2.6,6.7-3.9c-2.1-1.8-4.1-3.6-6.2-5.5v4.3h-7.3V712z"/>
		<path class="st13" d="M2287.9,698.7c1.8,1.3,3.5,2.6,5.3,3.9c2.2-1.2,4.4-2.4,6.5-3.6c-1.5-1.5-3-3-4.4-4.6v4.3L2287.9,698.7
			L2287.9,698.7z"/>
	</g>
	<g id="Trein">
		<path class="st7" d="M2021.2,670.1c0,0,24.9,22,15.9,53l-50,26c0,0-18,9-18-7S1973.3,692.2,2021.2,670.1z"/>
		<path class="st8" d="M1976.2,710.3c0,0-5.1,13.8,17.9,8.8l28.1-14.3l3.6,9.6l-32.7,14.7c0,0-26.8,8.5-20.9-8.7
			C1978.1,703.1,1976.2,710.3,1976.2,710.3z"/>
		<path class="st8" d="M2010.1,676.3c0,0,17.9,19.1,23,48.9l8.1-4.2c0-4.8-0.4-10.5-1.9-16.8c-3.8-16.6-12.5-28.1-18.1-34.2
			C2017.6,672.1,2013.8,674.2,2010.1,676.3z"/>
		<path class="st8" d="M1991.3,702c0,0-2,6,3,2s6.8-10.6,22.9-18.3l-2.2-3.2C2015,682.4,1990.3,700,1991.3,702z"/>
	</g>
	<g id="Bord">
		<polyline class="st8" points="2021.1,777.1 2021.1,793.1 2026.1,793.1 2026.1,780.1 2021.1,777.1 		"/>
		<polyline class="st8" points="2038.1,786.1 2038.1,802.1 2043.1,802.1 2043.1,789.1 2038.1,786.1 		"/>
		<polygon class="st8" points="2017.2,755.1 2017.2,777.1 2020.6,779.2 2045.2,794.1 2046.2,773.1 		"/>
	</g>
	<rect id="Achter_B" x="1868.1" y="192.1" class="st2" width="50" height="135"/>
</g>
<g id="Letters">
	<polygon id="E" class="st14" points="2195.1,201.1 2063.1,277.1 2063.1,503.1 2195.1,429.1 2195.1,364.1 2129.1,399.1 
		2129.1,369.1 2175.1,344.1 2175.1,305.1 2131.1,331.1 2131.1,303.1 2195.1,268.1 	"/>
	<path id="B" class="st14" d="M1987.1,327.1c-4.1-15-12.1-24.9-17.8-31.9c-6.3-7.8-12.6-13.4-17.2-17.1c9-5.3,13.6-11.3,16-15.5
		c15.6-27.1-6.6-66.8-23.4-86.5c-8.7-10.2-17.6-16.9-23.6-21l-110-60v238l117,59c25.8,4.7,40.6-1.6,49-9.6c7.2-6.9,9.8-15.3,11-20.4
		C1989.8,353.9,1991,341.3,1987.1,327.1z M1872.1,203.9c11.7,6.7,23.3,13.3,35,20c4.4,3.8,5.2,9.5,2.8,12.9
		c-2.1,2.9-6.1,3.1-6.8,3.1c-10.3-5.3-20.7-10.7-31-16V203.9z M1909.9,317.3c-2.2,2.5-5.5,3-6.8,3.1c-10.3-5.3-20.7-10.7-31-16
		c0-6.8,0-13.7,0-20.5c12.3,6,24.7,12,37,18C1913,307.2,1913.1,313.7,1909.9,317.3z"/>
	<path id="R" class="st14" d="M1958.1,575.1c6.2-6.5,15.5-17.9,21.6-34.6c8.6-23.4,6.1-43.9,4.4-53.4c-1.3-4.7-5.5-17.7-18.1-26.6
		c-14.8-10.4-35.3-10.9-52.9-1.4l-86,48v242l71-40l1-83l28-16l1,81l60-34v-58C1982.1,576.1,1958.1,575.1,1958.1,575.1z
		 M1931.1,544.1c0,0-2,4-7,6l-30,15v-21l31-16C1925.1,528.1,1938.1,528.1,1931.1,544.1z"/>
	<polygon id="I" class="st14" points="1899.1,742.9 1899.1,812.9 1929.1,829.9 1929.1,925.9 1899.1,908.9 1899.1,977.9 
		2034.1,1055.9 2034.1,986.9 1993.1,963.9 1995.1,866.9 2034.1,889.9 2034.1,819.9 	"/>
	<path id="N" class="st14" d="M2121.1,1201.9l1-214c20.3-11,40.7-22,61-33c14.7,22.7,29.3,45.3,44,68v-89l63-35l3,210l-68,36l-40-64
		v88L2121.1,1201.9z"/>
	<polygon id="L" class="st14" points="2070.1,552.4 2070.1,768.4 2180.1,830.4 2180.1,769.4 2133.1,743.4 2134.1,588.4 	"/>
</g>
<g id="Rivier">
	<path id="Rivier_basis" class="st0" d="M1605.1,777.1l-135,80v289l62-36c0,0,36-18-3-48l-27-16c0,0-24-16,8-39
		c12.3-6.3,24.7-12.7,37-19c11.7-3.5,19.1-14.6,18-25.9c-0.9-9.8-8.1-18.2-18-21.1c0,0-48-20,2-43l56-30V777.1z"/>
	<g id="Rivier_detail_7">
		<g>
			<path class="st15" d="M1499.7,897.4c3.1,1,6.5,1,9.4-0.5c2.7-1.3,4.7-3.9,5.1-6.9c0.1-0.8-0.2-1.6-1-1.8c-0.7-0.2-1.7,0.2-1.8,1
				c-0.3,2.3-1.7,4.1-3.7,5.1c-2.2,1.1-4.8,0.9-7.1,0.2c-0.8-0.3-1.6,0.3-1.8,1C1498.5,896.4,1499,897.1,1499.7,897.4L1499.7,897.4z
				"/>
		</g>
	</g>
	<g id="Rivier_detail_8">
		<g>
			<path class="st15" d="M1522.8,862.4c3.1,1,6.5,1,9.4-0.5c2.7-1.3,4.7-3.9,5.1-6.9c0.1-0.8-0.2-1.6-1-1.8c-0.7-0.2-1.7,0.2-1.8,1
				c-0.3,2.3-1.7,4.1-3.7,5.1c-2.2,1.1-4.8,0.9-7.1,0.2c-0.8-0.3-1.6,0.3-1.8,1C1521.5,861.4,1522,862.2,1522.8,862.4L1522.8,862.4z
				"/>
		</g>
	</g>
	<g id="Rivier_detail_9">
		<g>
			<path class="st15" d="M1551,865.6c3.1,1,6.5,1,9.4-0.5c2.7-1.3,4.7-3.9,5.1-6.9c0.1-0.8-0.2-1.6-1-1.8c-0.7-0.2-1.7,0.2-1.8,1
				c-0.3,2.3-1.7,4.1-3.7,5.1c-2.2,1.1-4.8,0.9-7.1,0.2c-0.8-0.3-1.6,0.3-1.8,1C1549.7,864.6,1550.2,865.3,1551,865.6L1551,865.6z"
				/>
		</g>
	</g>
	<g id="Rivier_detail_10">
		<g>
			<path class="st15" d="M1582.7,819.6c3.1,1,6.5,1,9.4-0.5c2.7-1.3,4.7-3.9,5.1-6.9c0.1-0.8-0.2-1.6-1-1.8c-0.7-0.2-1.7,0.2-1.8,1
				c-0.3,2.3-1.7,4.1-3.7,5.1c-2.2,1.1-4.8,0.9-7.1,0.2c-0.8-0.3-1.6,0.3-1.8,1C1581.4,818.5,1581.9,819.3,1582.7,819.6
				L1582.7,819.6z"/>
		</g>
	</g>
	<g id="Rivier_detail_6">
		<g>
			<path class="st15" d="M1483.1,967.2c3.1,1,6.5,1,9.4-0.5c2.7-1.3,4.7-3.9,5.1-6.9c0.1-0.8-0.2-1.6-1-1.8c-0.7-0.2-1.7,0.2-1.8,1
				c-0.3,2.3-1.7,4.1-3.7,5.1c-2.2,1.1-4.8,0.9-7.1,0.2c-0.8-0.3-1.6,0.3-1.8,1C1481.8,966.1,1482.3,966.9,1483.1,967.2
				L1483.1,967.2z"/>
		</g>
	</g>
	<g id="Rivier_detail_4">
		<g>
			<path class="st15" d="M1515.1,980.2c3.1,1,6.5,1,9.4-0.5c2.7-1.3,4.7-3.9,5.1-6.9c0.1-0.8-0.2-1.6-1-1.8c-0.7-0.2-1.7,0.2-1.8,1
				c-0.3,2.3-1.7,4.1-3.7,5.1c-2.2,1.1-4.8,0.9-7.1,0.2c-0.8-0.3-1.6,0.3-1.8,1C1513.8,979.1,1514.3,979.9,1515.1,980.2
				L1515.1,980.2z"/>
		</g>
	</g>
	<g id="Rivier_detail_5">
		<g>
			<path class="st15" d="M1517.1,957.2c3.1,1,6.5,1,9.4-0.5c2.7-1.3,4.7-3.9,5.1-6.9c0.1-0.8-0.2-1.6-1-1.8c-0.7-0.2-1.7,0.2-1.8,1
				c-0.3,2.3-1.7,4.1-3.7,5.1c-2.2,1.1-4.8,0.9-7.1,0.2c-0.8-0.3-1.6,0.3-1.8,1C1515.8,956.1,1516.3,956.9,1517.1,957.2
				L1517.1,957.2z"/>
		</g>
	</g>
	<g id="Rivier_detail_3">
		<g>
			<path class="st15" d="M1472.1,1000.2c3.1,1,6.5,1,9.4-0.5c2.7-1.3,4.7-3.9,5.1-6.9c0.1-0.8-0.2-1.6-1-1.8c-0.7-0.2-1.7,0.2-1.8,1
				c-0.3,2.3-1.7,4.1-3.7,5.1c-2.2,1.1-4.8,0.9-7.1,0.2c-0.8-0.3-1.6,0.3-1.8,1C1470.8,999.1,1471.3,999.9,1472.1,1000.2
				L1472.1,1000.2z"/>
		</g>
	</g>
	<g id="Rivier_detail_2">
		<g>
			<path class="st15" d="M1489.6,1080.6c3.1,1,6.5,1,9.4-0.5c2.7-1.3,4.7-3.9,5.1-6.9c0.1-0.8-0.2-1.6-1-1.8c-0.7-0.2-1.7,0.2-1.8,1
				c-0.3,2.3-1.7,4.1-3.7,5.1c-2.2,1.1-4.8,0.9-7.1,0.2c-0.8-0.3-1.6,0.3-1.8,1C1488.4,1079.5,1488.9,1080.3,1489.6,1080.6
				L1489.6,1080.6z"/>
		</g>
	</g>
	<g id="Rivier_detail_1">
		<g>
			<path class="st15" d="M1481.6,1107.6c3.1,1,6.5,1,9.4-0.5c2.7-1.3,4.7-3.9,5.1-6.9c0.1-0.8-0.2-1.6-1-1.8c-0.7-0.2-1.7,0.2-1.8,1
				c-0.3,2.3-1.7,4.1-3.7,5.1c-2.2,1.1-4.8,0.9-7.1,0.2c-0.8-0.3-1.6,0.3-1.8,1C1480.4,1106.5,1480.9,1107.3,1481.6,1107.6
				L1481.6,1107.6z"/>
		</g>
	</g>
</g>
<g id="Boompjes">
	<path id="Boom_1" class="st16" d="M1614.1,1179.6h4.5v34.5h-4.5V1179.6z M1602.1,1165.5c0,8.1,6.3,14.6,14,14.6s14-6.5,14-14.6
		s-6.3-14.6-14-14.6S1602.1,1157.5,1602.1,1165.5z"/>
	<path id="Boom_3_1_" class="st16" d="M1708.1,1083.3h4.5v34.5h-4.5V1083.3z M1696.1,1069.2c0,8.1,6.3,14.6,14,14.6s14-6.5,14-14.6
		s-6.3-14.6-14-14.6S1696.1,1061.1,1696.1,1069.2z"/>
	<path id="Boom_2" class="st16" d="M1783.1,1176.3h4.5v34.5h-4.5V1176.3z M1771.1,1162.2c0,8.1,6.3,14.6,14,14.6s14-6.5,14-14.6
		s-6.3-14.6-14-14.6S1771.1,1154.1,1771.1,1162.2z"/>
	<path id="Boom_4" class="st16" d="M2445,806.6h4.5v34.5h-4.5V806.6z M2433,792.5c0,8.1,6.3,14.6,14,14.6s14-6.5,14-14.6
		s-6.3-14.6-14-14.6S2433,784.4,2433,792.5z"/>
	<path id="Boom_5" class="st16" d="M2392,734.6h4.5v34.5h-4.5V734.6z M2380,720.5c0,8.1,6.3,14.6,14,14.6s14-6.5,14-14.6
		s-6.3-14.6-14-14.6S2380,712.4,2380,720.5z"/>
</g>
<g id="Wolkje_voor_gebouw">
	<path id="Wolk_1_1_" class="st0" d="M2269.8,611c0,0-4.6-40.1,36.7-51.6c0,0,57.3-169.7,127.3-65.4c0,0,20.6-20.6,28.7,8
		L2269.8,611z"/>
</g>
<g>
	<path class="st15" d="M1386.9,1134.5c3.1,1,6.5,1,9.4-0.5c2.7-1.3,4.7-3.9,5.1-6.9c0.1-0.8-0.2-1.6-1-1.8c-0.7-0.2-1.7,0.2-1.8,1
		c-0.3,2.3-1.7,4.1-3.7,5.1c-2.2,1.1-4.8,0.9-7.1,0.2c-0.8-0.3-1.6,0.3-1.8,1C1385.7,1133.5,1386.2,1134.2,1386.9,1134.5
		L1386.9,1134.5z"/>
</g>
<polygon class="st0" points="1470.1,857.1 1470.9,1145.1 0,1979.1 0,1680 "/>
<g id="Rivier_detail_8_1_">
	<g>
		<path class="st15" d="M1410,1099.5c3.1,1,6.5,1,9.4-0.5c2.7-1.3,4.7-3.9,5.1-6.9c0.1-0.8-0.2-1.6-1-1.8c-0.7-0.2-1.7,0.2-1.8,1
			c-0.3,2.3-1.7,4.1-3.7,5.1c-2.2,1.1-4.8,0.9-7.1,0.2c-0.8-0.3-1.6,0.3-1.8,1C1408.7,1098.5,1409.2,1099.3,1410,1099.5L1410,1099.5
			z"/>
	</g>
</g>
<g id="Rivier_detail_9_1_">
	<g>
		<path class="st15" d="M1438.2,1102.7c3.1,1,6.5,1,9.4-0.5c2.7-1.3,4.7-3.9,5.1-6.9c0.1-0.8-0.2-1.6-1-1.8c-0.7-0.2-1.7,0.2-1.8,1
			c-0.3,2.3-1.7,4.1-3.7,5.1c-2.2,1.1-4.8,0.9-7.1,0.2c-0.8-0.3-1.6,0.3-1.8,1C1436.9,1101.7,1437.4,1102.4,1438.2,1102.7
			L1438.2,1102.7z"/>
	</g>
</g>
<g id="Rivier_detail_10_1_">
	<g>
		<path class="st15" d="M1469.9,1056.7c3.1,1,6.5,1,9.4-0.5c2.7-1.3,4.7-3.9,5.1-6.9c0.1-0.8-0.2-1.6-1-1.8c-0.7-0.2-1.7,0.2-1.8,1
			c-0.3,2.3-1.7,4.1-3.7,5.1c-2.2,1.1-4.8,0.9-7.1,0.2c-0.8-0.3-1.6,0.3-1.8,1C1468.6,1055.6,1469.1,1056.4,1469.9,1056.7
			L1469.9,1056.7z"/>
	</g>
</g>
<g id="Rivier_detail_6_1_">
	<g>
		<path class="st15" d="M1367.7,1000.1c3.1,1,6.5,1,9.4-0.5c2.7-1.3,4.7-3.9,5.1-6.9c0.1-0.8-0.2-1.6-1-1.8c-0.7-0.2-1.7,0.2-1.8,1
			c-0.3,2.3-1.7,4.1-3.7,5.1c-2.2,1.1-4.8,0.9-7.1,0.2c-0.8-0.3-1.6,0.3-1.8,1C1366.4,999,1366.9,999.8,1367.7,1000.1L1367.7,1000.1
			z"/>
	</g>
</g>
<g id="Rivier_detail_4_1_">
	<g>
		<path class="st15" d="M1399.7,1013.1c3.1,1,6.5,1,9.4-0.5c2.7-1.3,4.7-3.9,5.1-6.9c0.1-0.8-0.2-1.6-1-1.8c-0.7-0.2-1.7,0.2-1.8,1
			c-0.3,2.3-1.7,4.1-3.7,5.1c-2.2,1.1-4.8,0.9-7.1,0.2c-0.8-0.3-1.6,0.3-1.8,1C1398.4,1012,1398.9,1012.8,1399.7,1013.1
			L1399.7,1013.1z"/>
	</g>
</g>
<g id="Rivier_detail_5_1_">
	<g>
		<path class="st15" d="M1401.7,990.1c3.1,1,6.5,1,9.4-0.5c2.7-1.3,4.7-3.9,5.1-6.9c0.1-0.8-0.2-1.6-1-1.8c-0.7-0.2-1.7,0.2-1.8,1
			c-0.3,2.3-1.7,4.1-3.7,5.1c-2.2,1.1-4.8,0.9-7.1,0.2c-0.8-0.3-1.6,0.3-1.8,1C1400.4,989,1400.9,989.8,1401.7,990.1L1401.7,990.1z"
			/>
	</g>
</g>
<g id="Rivier_detail_2_1_">
	<g>
		<path class="st15" d="M1436.4,911.2c3.1,1,6.5,1,9.4-0.5c2.7-1.3,4.7-3.9,5.1-6.9c0.1-0.8-0.2-1.6-1-1.8c-0.7-0.2-1.7,0.2-1.8,1
			c-0.3,2.3-1.7,4.1-3.7,5.1c-2.2,1.1-4.8,0.9-7.1,0.2c-0.8-0.3-1.6,0.3-1.8,1C1435.2,910.1,1435.7,910.9,1436.4,911.2L1436.4,911.2
			z"/>
	</g>
</g>
<g id="Rivier_detail_1_1_">
	<g>
		<path class="st15" d="M1428.4,938.2c3.1,1,6.5,1,9.4-0.5c2.7-1.3,4.7-3.9,5.1-6.9c0.1-0.8-0.2-1.6-1-1.8c-0.7-0.2-1.7,0.2-1.8,1
			c-0.3,2.3-1.7,4.1-3.7,5.1c-2.2,1.1-4.8,0.9-7.1,0.2c-0.8-0.3-1.6,0.3-1.8,1C1427.2,937.1,1427.7,937.9,1428.4,938.2L1428.4,938.2
			z"/>
	</g>
</g>
<g id="Rivier_detail_7_2_">
	<g>
		<path class="st15" d="M1258.2,1031.3c3.1,1,6.5,1,9.4-0.5c2.7-1.3,4.7-3.9,5.1-6.9c0.1-0.8-0.2-1.6-1-1.8c-0.7-0.2-1.7,0.2-1.8,1
			c-0.3,2.3-1.7,4.1-3.7,5.1c-2.2,1.1-4.8,0.9-7.1,0.2c-0.8-0.3-1.6,0.3-1.8,1C1257,1030.3,1257.5,1031,1258.2,1031.3L1258.2,1031.3
			z"/>
	</g>
</g>
<g id="Rivier_detail_8_2_">
	<g>
		<path class="st15" d="M1281.3,996.3c3.1,1,6.5,1,9.4-0.5c2.7-1.3,4.7-3.9,5.1-6.9c0.1-0.8-0.2-1.6-1-1.8c-0.7-0.2-1.7,0.2-1.8,1
			c-0.3,2.3-1.7,4.1-3.7,5.1c-2.2,1.1-4.8,0.9-7.1,0.2c-0.8-0.3-1.6,0.3-1.8,1C1280,995.3,1280.5,996.1,1281.3,996.3L1281.3,996.3z"
			/>
	</g>
</g>
<g id="Rivier_detail_9_2_">
	<g>
		<path class="st15" d="M1309.5,999.5c3.1,1,6.5,1,9.4-0.5c2.7-1.3,4.7-3.9,5.1-6.9c0.1-0.8-0.2-1.6-1-1.8c-0.7-0.2-1.7,0.2-1.8,1
			c-0.3,2.3-1.7,4.1-3.7,5.1c-2.2,1.1-4.8,0.9-7.1,0.2c-0.8-0.3-1.6,0.3-1.8,1C1308.2,998.5,1308.7,999.2,1309.5,999.5L1309.5,999.5
			z"/>
	</g>
</g>
<g id="Rivier_detail_10_2_">
	<g>
		<path class="st15" d="M1341.2,953.5c3.1,1,6.5,1,9.4-0.5c2.7-1.3,4.7-3.9,5.1-6.9c0.1-0.8-0.2-1.6-1-1.8c-0.7-0.2-1.7,0.2-1.8,1
			c-0.3,2.3-1.7,4.1-3.7,5.1c-2.2,1.1-4.8,0.9-7.1,0.2c-0.8-0.3-1.6,0.3-1.8,1C1339.9,952.4,1340.4,953.2,1341.2,953.5L1341.2,953.5
			z"/>
	</g>
</g>
<g id="Rivier_detail_6_2_">
	<g>
		<path class="st15" d="M1314.9,1189.6c3.1,1,6.5,1,9.4-0.5c2.7-1.3,4.7-3.9,5.1-6.9c0.1-0.8-0.2-1.6-1-1.8c-0.7-0.2-1.7,0.2-1.8,1
			c-0.3,2.3-1.7,4.1-3.7,5.1c-2.2,1.1-4.8,0.9-7.1,0.2c-0.8-0.3-1.6,0.3-1.8,1C1313.6,1188.5,1314.1,1189.3,1314.9,1189.6
			L1314.9,1189.6z"/>
	</g>
</g>
<g id="Rivier_detail_4_2_">
	<g>
		<path class="st15" d="M1346.9,1202.6c3.1,1,6.5,1,9.4-0.5c2.7-1.3,4.7-3.9,5.1-6.9c0.1-0.8-0.2-1.6-1-1.8c-0.7-0.2-1.7,0.2-1.8,1
			c-0.3,2.3-1.7,4.1-3.7,5.1c-2.2,1.1-4.8,0.9-7.1,0.2c-0.8-0.3-1.6,0.3-1.8,1C1345.6,1201.5,1346.1,1202.3,1346.9,1202.6
			L1346.9,1202.6z"/>
	</g>
</g>
<g id="Rivier_detail_5_2_">
	<g>
		<path class="st15" d="M1348.9,1179.6c3.1,1,6.5,1,9.4-0.5c2.7-1.3,4.7-3.9,5.1-6.9c0.1-0.8-0.2-1.6-1-1.8c-0.7-0.2-1.7,0.2-1.8,1
			c-0.3,2.3-1.7,4.1-3.7,5.1c-2.2,1.1-4.8,0.9-7.1,0.2c-0.8-0.3-1.6,0.3-1.8,1C1347.6,1178.5,1348.1,1179.3,1348.9,1179.6
			L1348.9,1179.6z"/>
	</g>
</g>
<g id="Rivier_detail_3_2_">
	<g>
		<path class="st15" d="M1303.9,1222.6c3.1,1,6.5,1,9.4-0.5c2.7-1.3,4.7-3.9,5.1-6.9c0.1-0.8-0.2-1.6-1-1.8c-0.7-0.2-1.7,0.2-1.8,1
			c-0.3,2.3-1.7,4.1-3.7,5.1c-2.2,1.1-4.8,0.9-7.1,0.2c-0.8-0.3-1.6,0.3-1.8,1C1302.6,1221.5,1303.1,1222.3,1303.9,1222.6
			L1303.9,1222.6z"/>
	</g>
</g>
<g id="Rivier_detail_2_2_">
	<g>
		<path class="st15" d="M1311.1,1082.1c3.1,1,6.5,1,9.4-0.5c2.7-1.3,4.7-3.9,5.1-6.9c0.1-0.8-0.2-1.6-1-1.8c-0.7-0.2-1.7,0.2-1.8,1
			c-0.3,2.3-1.7,4.1-3.7,5.1c-2.2,1.1-4.8,0.9-7.1,0.2c-0.8-0.3-1.6,0.3-1.8,1C1309.9,1081,1310.4,1081.8,1311.1,1082.1
			L1311.1,1082.1z"/>
	</g>
</g>
<g id="Rivier_detail_1_2_">
	<g>
		<path class="st15" d="M1303.1,1109.1c3.1,1,6.5,1,9.4-0.5c2.7-1.3,4.7-3.9,5.1-6.9c0.1-0.8-0.2-1.6-1-1.8c-0.7-0.2-1.7,0.2-1.8,1
			c-0.3,2.3-1.7,4.1-3.7,5.1c-2.2,1.1-4.8,0.9-7.1,0.2c-0.8-0.3-1.6,0.3-1.8,1C1301.9,1108,1302.4,1108.8,1303.1,1109.1
			L1303.1,1109.1z"/>
	</g>
</g>
<g id="Rivier_detail_7_4_">
	<g>
		<path class="st15" d="M1146.3,1257.2c3.1,1,6.5,1,9.4-0.5c2.7-1.3,4.7-3.9,5.1-6.9c0.1-0.8-0.2-1.6-1-1.8c-0.7-0.2-1.7,0.2-1.8,1
			c-0.3,2.3-1.7,4.1-3.7,5.1c-2.2,1.1-4.8,0.9-7.1,0.2c-0.8-0.3-1.6,0.3-1.8,1C1145.1,1256.2,1145.6,1256.9,1146.3,1257.2
			L1146.3,1257.2z"/>
	</g>
</g>
<g id="Rivier_detail_8_4_">
	<g>
		<path class="st15" d="M1169.4,1222.2c3.1,1,6.5,1,9.4-0.5c2.7-1.3,4.7-3.9,5.1-6.9c0.1-0.8-0.2-1.6-1-1.8c-0.7-0.2-1.7,0.2-1.8,1
			c-0.3,2.3-1.7,4.1-3.7,5.1c-2.2,1.1-4.8,0.9-7.1,0.2c-0.8-0.3-1.6,0.3-1.8,1C1168.1,1221.2,1168.6,1222,1169.4,1222.2
			L1169.4,1222.2z"/>
	</g>
</g>
<g id="Rivier_detail_9_4_">
	<g>
		<path class="st15" d="M1197.6,1225.4c3.1,1,6.5,1,9.4-0.5c2.7-1.3,4.7-3.9,5.1-6.9c0.1-0.8-0.2-1.6-1-1.8c-0.7-0.2-1.7,0.2-1.8,1
			c-0.3,2.3-1.7,4.1-3.7,5.1c-2.2,1.1-4.8,0.9-7.1,0.2c-0.8-0.3-1.6,0.3-1.8,1C1196.3,1224.4,1196.8,1225.1,1197.6,1225.4
			L1197.6,1225.4z"/>
	</g>
</g>
<g id="Rivier_detail_6_4_">
	<g>
		<path class="st15" d="M1127.1,1122.9c3.1,1,6.5,1,9.4-0.5c2.7-1.3,4.7-3.9,5.1-6.9c0.1-0.8-0.2-1.6-1-1.8c-0.7-0.2-1.7,0.2-1.8,1
			c-0.3,2.3-1.7,4.1-3.7,5.1c-2.2,1.1-4.8,0.9-7.1,0.2c-0.8-0.3-1.6,0.3-1.8,1C1125.8,1121.8,1126.3,1122.6,1127.1,1122.9
			L1127.1,1122.9z"/>
	</g>
</g>
<g id="Rivier_detail_4_4_">
	<g>
		<path class="st15" d="M1159.1,1135.9c3.1,1,6.5,1,9.4-0.5c2.7-1.3,4.7-3.9,5.1-6.9c0.1-0.8-0.2-1.6-1-1.8c-0.7-0.2-1.7,0.2-1.8,1
			c-0.3,2.3-1.7,4.1-3.7,5.1c-2.2,1.1-4.8,0.9-7.1,0.2c-0.8-0.3-1.6,0.3-1.8,1C1157.8,1134.8,1158.3,1135.6,1159.1,1135.9
			L1159.1,1135.9z"/>
	</g>
</g>
<g id="Rivier_detail_5_4_">
	<g>
		<path class="st15" d="M1161.1,1112.9c3.1,1,6.5,1,9.4-0.5c2.7-1.3,4.7-3.9,5.1-6.9c0.1-0.8-0.2-1.6-1-1.8c-0.7-0.2-1.7,0.2-1.8,1
			c-0.3,2.3-1.7,4.1-3.7,5.1c-2.2,1.1-4.8,0.9-7.1,0.2c-0.8-0.3-1.6,0.3-1.8,1C1159.8,1111.8,1160.3,1112.6,1161.1,1112.9
			L1161.1,1112.9z"/>
	</g>
</g>
<g id="Rivier_detail_3_4_">
	<g>
		<path class="st15" d="M1116.1,1155.9c3.1,1,6.5,1,9.4-0.5c2.7-1.3,4.7-3.9,5.1-6.9c0.1-0.8-0.2-1.6-1-1.8c-0.7-0.2-1.7,0.2-1.8,1
			c-0.3,2.3-1.7,4.1-3.7,5.1c-2.2,1.1-4.8,0.9-7.1,0.2c-0.8-0.3-1.6,0.3-1.8,1C1114.8,1154.8,1115.3,1155.6,1116.1,1155.9
			L1116.1,1155.9z"/>
	</g>
</g>
<g id="Rivier_detail_2_4_">
	<g>
		<path class="st15" d="M1195.8,1033.9c3.1,1,6.5,1,9.4-0.5c2.7-1.3,4.7-3.9,5.1-6.9c0.1-0.8-0.2-1.6-1-1.8c-0.7-0.2-1.7,0.2-1.8,1
			c-0.3,2.3-1.7,4.1-3.7,5.1c-2.2,1.1-4.8,0.9-7.1,0.2c-0.8-0.3-1.6,0.3-1.8,1C1194.6,1032.8,1195.1,1033.6,1195.8,1033.9
			L1195.8,1033.9z"/>
	</g>
</g>
<g id="Rivier_detail_1_4_">
	<g>
		<path class="st15" d="M1187.8,1060.9c3.1,1,6.5,1,9.4-0.5c2.7-1.3,4.7-3.9,5.1-6.9c0.1-0.8-0.2-1.6-1-1.8c-0.7-0.2-1.7,0.2-1.8,1
			c-0.3,2.3-1.7,4.1-3.7,5.1c-2.2,1.1-4.8,0.9-7.1,0.2c-0.8-0.3-1.6,0.3-1.8,1C1186.6,1059.8,1187.1,1060.6,1187.8,1060.9
			L1187.8,1060.9z"/>
	</g>
</g>
<g id="Rivier_detail_8_3_">
	<g>
		<path class="st15" d="M1040.7,1119c3.1,1,6.5,1,9.4-0.5c2.7-1.3,4.7-3.9,5.1-6.9c0.1-0.8-0.2-1.6-1-1.8c-0.7-0.2-1.7,0.2-1.8,1
			c-0.3,2.3-1.7,4.1-3.7,5.1c-2.2,1.1-4.8,0.9-7.1,0.2c-0.8-0.3-1.6,0.3-1.8,1C1039.4,1118,1039.9,1118.8,1040.7,1119L1040.7,1119z"
			/>
	</g>
</g>
<g id="Rivier_detail_10_3_">
	<g>
		<path class="st15" d="M1100.6,1076.2c3.1,1,6.5,1,9.4-0.5c2.7-1.3,4.7-3.9,5.1-6.9c0.1-0.8-0.2-1.6-1-1.8c-0.7-0.2-1.7,0.2-1.8,1
			c-0.3,2.3-1.7,4.1-3.7,5.1c-2.2,1.1-4.8,0.9-7.1,0.2c-0.8-0.3-1.6,0.3-1.8,1C1099.3,1075.1,1099.8,1075.9,1100.6,1076.2
			L1100.6,1076.2z"/>
	</g>
</g>
<g id="Rivier_detail_6_3_">
	<g>
		<path class="st15" d="M1074.3,1312.4c3.1,1,6.5,1,9.4-0.5c2.7-1.3,4.7-3.9,5.1-6.9c0.1-0.8-0.2-1.6-1-1.8c-0.7-0.2-1.7,0.2-1.8,1
			c-0.3,2.3-1.7,4.1-3.7,5.1c-2.2,1.1-4.8,0.9-7.1,0.2c-0.8-0.3-1.6,0.3-1.8,1C1073,1311.3,1073.5,1312.1,1074.3,1312.4
			L1074.3,1312.4z"/>
	</g>
</g>
<g id="Rivier_detail_5_3_">
	<g>
		<path class="st15" d="M1108.3,1302.4c3.1,1,6.5,1,9.4-0.5c2.7-1.3,4.7-3.9,5.1-6.9c0.1-0.8-0.2-1.6-1-1.8c-0.7-0.2-1.7,0.2-1.8,1
			c-0.3,2.3-1.7,4.1-3.7,5.1c-2.2,1.1-4.8,0.9-7.1,0.2c-0.8-0.3-1.6,0.3-1.8,1C1107,1301.3,1107.5,1302.1,1108.3,1302.4
			L1108.3,1302.4z"/>
	</g>
</g>
<g id="Rivier_detail_3_3_">
	<g>
		<path class="st15" d="M1063.3,1345.4c3.1,1,6.5,1,9.4-0.5c2.7-1.3,4.7-3.9,5.1-6.9c0.1-0.8-0.2-1.6-1-1.8c-0.7-0.2-1.7,0.2-1.8,1
			c-0.3,2.3-1.7,4.1-3.7,5.1c-2.2,1.1-4.8,0.9-7.1,0.2c-0.8-0.3-1.6,0.3-1.8,1C1062,1344.3,1062.5,1345.1,1063.3,1345.4
			L1063.3,1345.4z"/>
	</g>
</g>
<g id="Rivier_detail_2_3_">
	<g>
		<path class="st15" d="M1070.5,1204.8c3.1,1,6.5,1,9.4-0.5c2.7-1.3,4.7-3.9,5.1-6.9c0.1-0.8-0.2-1.6-1-1.8c-0.7-0.2-1.7,0.2-1.8,1
			c-0.3,2.3-1.7,4.1-3.7,5.1c-2.2,1.1-4.8,0.9-7.1,0.2c-0.8-0.3-1.6,0.3-1.8,1C1069.3,1203.7,1069.8,1204.5,1070.5,1204.8
			L1070.5,1204.8z"/>
	</g>
</g>
<g id="Rivier_detail_1_3_">
	<g>
		<path class="st15" d="M1062.5,1231.8c3.1,1,6.5,1,9.4-0.5c2.7-1.3,4.7-3.9,5.1-6.9c0.1-0.8-0.2-1.6-1-1.8c-0.7-0.2-1.7,0.2-1.8,1
			c-0.3,2.3-1.7,4.1-3.7,5.1c-2.2,1.1-4.8,0.9-7.1,0.2c-0.8-0.3-1.6,0.3-1.8,1C1061.3,1230.7,1061.8,1231.5,1062.5,1231.8
			L1062.5,1231.8z"/>
	</g>
</g>
<g id="Rivier_detail_8_6_">
	<g>
		<path class="st15" d="M1006.6,1382.9c3.1,1,6.5,1,9.4-0.5c2.7-1.3,4.7-3.9,5.1-6.9c0.1-0.8-0.2-1.6-1-1.8c-0.7-0.2-1.7,0.2-1.8,1
			c-0.3,2.3-1.7,4.1-3.7,5.1c-2.2,1.1-4.8,0.9-7.1,0.2c-0.8-0.3-1.6,0.3-1.8,1C1005.3,1381.9,1005.8,1382.7,1006.6,1382.9
			L1006.6,1382.9z"/>
	</g>
</g>
<g id="Rivier_detail_6_6_">
	<g>
		<path class="st15" d="M964.3,1283.6c3.1,1,6.5,1,9.4-0.5c2.7-1.3,4.7-3.9,5.1-6.9c0.1-0.8-0.2-1.6-1-1.8c-0.7-0.2-1.7,0.2-1.8,1
			c-0.3,2.3-1.7,4.1-3.7,5.1c-2.2,1.1-4.8,0.9-7.1,0.2c-0.8-0.3-1.6,0.3-1.8,1C963,1282.5,963.5,1283.3,964.3,1283.6L964.3,1283.6z"
			/>
	</g>
</g>
<g id="Rivier_detail_4_6_">
	<g>
		<path class="st15" d="M996.3,1296.6c3.1,1,6.5,1,9.4-0.5c2.7-1.3,4.7-3.9,5.1-6.9c0.1-0.8-0.2-1.6-1-1.8c-0.7-0.2-1.7,0.2-1.8,1
			c-0.3,2.3-1.7,4.1-3.7,5.1c-2.2,1.1-4.8,0.9-7.1,0.2c-0.8-0.3-1.6,0.3-1.8,1C995,1295.5,995.5,1296.3,996.3,1296.6L996.3,1296.6z"
			/>
	</g>
</g>
<g id="Rivier_detail_5_6_">
	<g>
		<path class="st15" d="M998.3,1273.6c3.1,1,6.5,1,9.4-0.5c2.7-1.3,4.7-3.9,5.1-6.9c0.1-0.8-0.2-1.6-1-1.8c-0.7-0.2-1.7,0.2-1.8,1
			c-0.3,2.3-1.7,4.1-3.7,5.1c-2.2,1.1-4.8,0.9-7.1,0.2c-0.8-0.3-1.6,0.3-1.8,1C997,1272.5,997.5,1273.3,998.3,1273.6L998.3,1273.6z"
			/>
	</g>
</g>
<g id="Rivier_detail_2_6_">
	<g>
		<path class="st15" d="M1033,1194.6c3.1,1,6.5,1,9.4-0.5c2.7-1.3,4.7-3.9,5.1-6.9c0.1-0.8-0.2-1.6-1-1.8c-0.7-0.2-1.7,0.2-1.8,1
			c-0.3,2.3-1.7,4.1-3.7,5.1c-2.2,1.1-4.8,0.9-7.1,0.2c-0.8-0.3-1.6,0.3-1.8,1C1031.8,1193.5,1032.3,1194.3,1033,1194.6L1033,1194.6
			z"/>
	</g>
</g>
<g id="Rivier_detail_1_6_">
	<g>
		<path class="st15" d="M1025,1221.6c3.1,1,6.5,1,9.4-0.5c2.7-1.3,4.7-3.9,5.1-6.9c0.1-0.8-0.2-1.6-1-1.8c-0.7-0.2-1.7,0.2-1.8,1
			c-0.3,2.3-1.7,4.1-3.7,5.1c-2.2,1.1-4.8,0.9-7.1,0.2c-0.8-0.3-1.6,0.3-1.8,1C1023.8,1220.5,1024.3,1221.3,1025,1221.6L1025,1221.6
			z"/>
	</g>
</g>
<g id="Rivier_detail_8_5_">
	<g>
		<path class="st15" d="M877.8,1279.7c3.1,1,6.5,1,9.4-0.5c2.7-1.3,4.7-3.9,5.1-6.9c0.1-0.8-0.2-1.6-1-1.8c-0.7-0.2-1.7,0.2-1.8,1
			c-0.3,2.3-1.7,4.1-3.7,5.1c-2.2,1.1-4.8,0.9-7.1,0.2c-0.8-0.3-1.6,0.3-1.8,1C876.5,1278.7,877,1279.5,877.8,1279.7L877.8,1279.7z"
			/>
	</g>
</g>
<g id="Rivier_detail_9_5_">
	<g>
		<path class="st15" d="M906,1282.9c3.1,1,6.5,1,9.4-0.5c2.7-1.3,4.7-3.9,5.1-6.9c0.1-0.8-0.2-1.6-1-1.8c-0.7-0.2-1.7,0.2-1.8,1
			c-0.3,2.3-1.7,4.1-3.7,5.1c-2.2,1.1-4.8,0.9-7.1,0.2c-0.8-0.3-1.6,0.3-1.8,1C904.7,1281.9,905.2,1282.6,906,1282.9L906,1282.9z"/>
	</g>
</g>
<g id="Rivier_detail_2_5_">
	<g>
		<path class="st15" d="M907.7,1365.5c3.1,1,6.5,1,9.4-0.5c2.7-1.3,4.7-3.9,5.1-6.9c0.1-0.8-0.2-1.6-1-1.8c-0.7-0.2-1.7,0.2-1.8,1
			c-0.3,2.3-1.7,4.1-3.7,5.1c-2.2,1.1-4.8,0.9-7.1,0.2c-0.8-0.3-1.6,0.3-1.8,1C906.5,1364.4,907,1365.2,907.7,1365.5L907.7,1365.5z"
			/>
	</g>
</g>
<g id="Rivier_detail_1_5_">
	<g>
		<path class="st15" d="M899.7,1392.5c3.1,1,6.5,1,9.4-0.5c2.7-1.3,4.7-3.9,5.1-6.9c0.1-0.8-0.2-1.6-1-1.8c-0.7-0.2-1.7,0.2-1.8,1
			c-0.3,2.3-1.7,4.1-3.7,5.1c-2.2,1.1-4.8,0.9-7.1,0.2c-0.8-0.3-1.6,0.3-1.8,1C898.5,1391.4,899,1392.2,899.7,1392.5L899.7,1392.5z"
			/>
	</g>
</g>
<g id="Rivier_detail_7_6_">
	<g>
		<path class="st15" d="M1235.7,1127.8c3.1,1,6.5,1,9.4-0.5c2.7-1.3,4.7-3.9,5.1-6.9c0.1-0.8-0.2-1.6-1-1.8c-0.7-0.2-1.7,0.2-1.8,1
			c-0.3,2.3-1.7,4.1-3.7,5.1c-2.2,1.1-4.8,0.9-7.1,0.2c-0.8-0.3-1.6,0.3-1.8,1C1234.5,1126.8,1235,1127.5,1235.7,1127.8
			L1235.7,1127.8z"/>
	</g>
</g>
<g id="Rivier_detail_9_6_">
	<g>
		<path class="st15" d="M1287,1096c3.1,1,6.5,1,9.4-0.5c2.7-1.3,4.7-3.9,5.1-6.9c0.1-0.8-0.2-1.6-1-1.8c-0.7-0.2-1.7,0.2-1.8,1
			c-0.3,2.3-1.7,4.1-3.7,5.1c-2.2,1.1-4.8,0.9-7.1,0.2c-0.8-0.3-1.6,0.3-1.8,1C1285.7,1095,1286.2,1095.7,1287,1096L1287,1096z"/>
	</g>
</g>
<g id="Rivier_detail_5_5_">
	<g>
		<path class="st15" d="M1197.6,1173c3.1,1,6.5,1,9.4-0.5c2.7-1.3,4.7-3.9,5.1-6.9c0.1-0.8-0.2-1.6-1-1.8c-0.7-0.2-1.7,0.2-1.8,1
			c-0.3,2.3-1.7,4.1-3.7,5.1c-2.2,1.1-4.8,0.9-7.1,0.2c-0.8-0.3-1.6,0.3-1.8,1C1196.3,1171.9,1196.8,1172.7,1197.6,1173L1197.6,1173
			z"/>
	</g>
</g>
<g id="Rivier_detail_5_8_">
	<g>
		<path class="st15" d="M1200.4,1267.2c3.1,1,6.5,1,9.4-0.5c2.7-1.3,4.7-3.9,5.1-6.9c0.1-0.8-0.2-1.6-1-1.8c-0.7-0.2-1.7,0.2-1.8,1
			c-0.3,2.3-1.7,4.1-3.7,5.1c-2.2,1.1-4.8,0.9-7.1,0.2c-0.8-0.3-1.6,0.3-1.8,1C1199.1,1266.1,1199.6,1266.9,1200.4,1267.2
			L1200.4,1267.2z"/>
	</g>
</g>
<g id="Rivier_detail_5_9_">
	<g>
		<path class="st15" d="M966.1,1189.6c3.1,1,6.5,1,9.4-0.5c2.7-1.3,4.7-3.9,5.1-6.9c0.1-0.8-0.2-1.6-1-1.8c-0.7-0.2-1.7,0.2-1.8,1
			c-0.3,2.3-1.7,4.1-3.7,5.1c-2.2,1.1-4.8,0.9-7.1,0.2c-0.8-0.3-1.6,0.3-1.8,1C964.8,1188.5,965.3,1189.3,966.1,1189.6L966.1,1189.6
			z"/>
	</g>
</g>
<g id="Rivier_detail_5_10_">
	<g>
		<path class="st15" d="M874.7,1221.6c3.1,1,6.5,1,9.4-0.5c2.7-1.3,4.7-3.9,5.1-6.9c0.1-0.8-0.2-1.6-1-1.8c-0.7-0.2-1.7,0.2-1.8,1
			c-0.3,2.3-1.7,4.1-3.7,5.1c-2.2,1.1-4.8,0.9-7.1,0.2c-0.8-0.3-1.6,0.3-1.8,1C873.4,1220.5,873.9,1221.3,874.7,1221.6L874.7,1221.6
			z"/>
	</g>
</g>
<g id="Rivier_detail_5_11_">
	<g>
		<path class="st15" d="M972.4,1366.2c3.1,1,6.5,1,9.4-0.5c2.7-1.3,4.7-3.9,5.1-6.9c0.1-0.8-0.2-1.6-1-1.8c-0.7-0.2-1.7,0.2-1.8,1
			c-0.3,2.3-1.7,4.1-3.7,5.1c-2.2,1.1-4.8,0.9-7.1,0.2c-0.8-0.3-1.6,0.3-1.8,1C971.1,1365.1,971.6,1365.9,972.4,1366.2L972.4,1366.2
			z"/>
	</g>
</g>
<g id="Rivier_detail_6_5_">
	<g>
		<path class="st15" d="M757.3,1278.2c3.1,1,6.5,1,9.4-0.5c2.7-1.3,4.7-3.9,5.1-6.9c0.1-0.8-0.2-1.6-1-1.8c-0.7-0.2-1.7,0.2-1.8,1
			c-0.3,2.3-1.7,4.1-3.7,5.1c-2.2,1.1-4.8,0.9-7.1,0.2c-0.8-0.3-1.6,0.3-1.8,1C756,1277.1,756.5,1277.9,757.3,1278.2L757.3,1278.2z"
			/>
	</g>
</g>
<g id="Rivier_detail_4_3_">
	<g>
		<path class="st15" d="M789.3,1291.2c3.1,1,6.5,1,9.4-0.5c2.7-1.3,4.7-3.9,5.1-6.9c0.1-0.8-0.2-1.6-1-1.8c-0.7-0.2-1.7,0.2-1.8,1
			c-0.3,2.3-1.7,4.1-3.7,5.1c-2.2,1.1-4.8,0.9-7.1,0.2c-0.8-0.3-1.6,0.3-1.8,1C788,1290.1,788.5,1290.9,789.3,1291.2L789.3,1291.2z"
			/>
	</g>
</g>
<g id="Rivier_detail_5_7_">
	<g>
		<path class="st15" d="M791.3,1268.2c3.1,1,6.5,1,9.4-0.5c2.7-1.3,4.7-3.9,5.1-6.9c0.1-0.8-0.2-1.6-1-1.8c-0.7-0.2-1.7,0.2-1.8,1
			c-0.3,2.3-1.7,4.1-3.7,5.1c-2.2,1.1-4.8,0.9-7.1,0.2c-0.8-0.3-1.6,0.3-1.8,1C790,1267.1,790.5,1267.9,791.3,1268.2L791.3,1268.2z"
			/>
	</g>
</g>
<g id="Rivier_detail_6_12_">
	<g>
		<path class="st15" d="M785.5,1421.3c3.1,1,6.5,1,9.4-0.5c2.7-1.3,4.7-3.9,5.1-6.9c0.1-0.8-0.2-1.6-1-1.8c-0.7-0.2-1.7,0.2-1.8,1
			c-0.3,2.3-1.7,4.1-3.7,5.1c-2.2,1.1-4.8,0.9-7.1,0.2c-0.8-0.3-1.6,0.3-1.8,1C784.2,1420.2,784.7,1421,785.5,1421.3L785.5,1421.3z"
			/>
	</g>
</g>
<g id="Rivier_detail_4_10_">
	<g>
		<path class="st15" d="M817.5,1434.3c3.1,1,6.5,1,9.4-0.5c2.7-1.3,4.7-3.9,5.1-6.9c0.1-0.8-0.2-1.6-1-1.8c-0.7-0.2-1.7,0.2-1.8,1
			c-0.3,2.3-1.7,4.1-3.7,5.1c-2.2,1.1-4.8,0.9-7.1,0.2c-0.8-0.3-1.6,0.3-1.8,1C816.2,1433.2,816.7,1434,817.5,1434.3L817.5,1434.3z"
			/>
	</g>
</g>
<g id="Rivier_detail_5_22_">
	<g>
		<path class="st15" d="M819.5,1411.3c3.1,1,6.5,1,9.4-0.5c2.7-1.3,4.7-3.9,5.1-6.9c0.1-0.8-0.2-1.6-1-1.8c-0.7-0.2-1.7,0.2-1.8,1
			c-0.3,2.3-1.7,4.1-3.7,5.1c-2.2,1.1-4.8,0.9-7.1,0.2c-0.8-0.3-1.6,0.3-1.8,1C818.2,1410.2,818.7,1411,819.5,1411.3L819.5,1411.3z"
			/>
	</g>
</g>
<g id="Rivier_detail_2_12_">
	<g>
		<path class="st15" d="M854.3,1332.3c3.1,1,6.5,1,9.4-0.5c2.7-1.3,4.7-3.9,5.1-6.9c0.1-0.8-0.2-1.6-1-1.8c-0.7-0.2-1.7,0.2-1.8,1
			c-0.3,2.3-1.7,4.1-3.7,5.1c-2.2,1.1-4.8,0.9-7.1,0.2c-0.8-0.3-1.6,0.3-1.8,1C853.1,1331.2,853.6,1332,854.3,1332.3L854.3,1332.3z"
			/>
	</g>
</g>
<g id="Rivier_detail_1_12_">
	<g>
		<path class="st15" d="M846.3,1359.3c3.1,1,6.5,1,9.4-0.5c2.7-1.3,4.7-3.9,5.1-6.9c0.1-0.8-0.2-1.6-1-1.8c-0.7-0.2-1.7,0.2-1.8,1
			c-0.3,2.3-1.7,4.1-3.7,5.1c-2.2,1.1-4.8,0.9-7.1,0.2c-0.8-0.3-1.6,0.3-1.8,1C845.1,1358.2,845.6,1359,846.3,1359.3L846.3,1359.3z"
			/>
	</g>
</g>
<g id="Rivier_detail_7_7_">
	<g>
		<path class="st15" d="M676,1452.4c3.1,1,6.5,1,9.4-0.5c2.7-1.3,4.7-3.9,5.1-6.9c0.1-0.8-0.2-1.6-1-1.8c-0.7-0.2-1.7,0.2-1.8,1
			c-0.3,2.3-1.7,4.1-3.7,5.1c-2.2,1.1-4.8,0.9-7.1,0.2c-0.8-0.3-1.6,0.3-1.8,1C674.8,1451.4,675.3,1452.1,676,1452.4L676,1452.4z"/>
	</g>
</g>
<g id="Rivier_detail_8_11_">
	<g>
		<path class="st15" d="M699.1,1417.4c3.1,1,6.5,1,9.4-0.5c2.7-1.3,4.7-3.9,5.1-6.9c0.1-0.8-0.2-1.6-1-1.8c-0.7-0.2-1.7,0.2-1.8,1
			c-0.3,2.3-1.7,4.1-3.7,5.1c-2.2,1.1-4.8,0.9-7.1,0.2c-0.8-0.3-1.6,0.3-1.8,1C697.8,1416.4,698.3,1417.2,699.1,1417.4L699.1,1417.4
			z"/>
	</g>
</g>
<g id="Rivier_detail_9_9_">
	<g>
		<path class="st15" d="M727.3,1420.6c3.1,1,6.5,1,9.4-0.5c2.7-1.3,4.7-3.9,5.1-6.9c0.1-0.8-0.2-1.6-1-1.8c-0.7-0.2-1.7,0.2-1.8,1
			c-0.3,2.3-1.7,4.1-3.7,5.1c-2.2,1.1-4.8,0.9-7.1,0.2c-0.8-0.3-1.6,0.3-1.8,1C726,1419.6,726.5,1420.3,727.3,1420.6L727.3,1420.6z"
			/>
	</g>
</g>
<g id="Rivier_detail_10_5_">
	<g>
		<path class="st15" d="M759,1374.6c3.1,1,6.5,1,9.4-0.5c2.7-1.3,4.7-3.9,5.1-6.9c0.1-0.8-0.2-1.6-1-1.8c-0.7-0.2-1.7,0.2-1.8,1
			c-0.3,2.3-1.7,4.1-3.7,5.1c-2.2,1.1-4.8,0.9-7.1,0.2c-0.8-0.3-1.6,0.3-1.8,1C757.7,1373.5,758.2,1374.3,759,1374.6L759,1374.6z"/>
	</g>
</g>
<g id="Rivier_detail_2_11_">
	<g>
		<path class="st15" d="M728.9,1503.2c3.1,1,6.5,1,9.4-0.5c2.7-1.3,4.7-3.9,5.1-6.9c0.1-0.8-0.2-1.6-1-1.8c-0.7-0.2-1.7,0.2-1.8,1
			c-0.3,2.3-1.7,4.1-3.7,5.1c-2.2,1.1-4.8,0.9-7.1,0.2c-0.8-0.3-1.6,0.3-1.8,1C727.7,1502.1,728.2,1502.9,728.9,1503.2L728.9,1503.2
			z"/>
	</g>
</g>
<g id="Rivier_detail_1_11_">
	<g>
		<path class="st15" d="M720.9,1530.2c3.1,1,6.5,1,9.4-0.5c2.7-1.3,4.7-3.9,5.1-6.9c0.1-0.8-0.2-1.6-1-1.8c-0.7-0.2-1.7,0.2-1.8,1
			c-0.3,2.3-1.7,4.1-3.7,5.1c-2.2,1.1-4.8,0.9-7.1,0.2c-0.8-0.3-1.6,0.3-1.8,1C719.7,1529.1,720.2,1529.9,720.9,1530.2L720.9,1530.2
			z"/>
	</g>
</g>
<g id="Rivier_detail_6_10_">
	<g>
		<path class="st15" d="M544.9,1544c3.1,1,6.5,1,9.4-0.5c2.7-1.3,4.7-3.9,5.1-6.9c0.1-0.8-0.2-1.6-1-1.8c-0.7-0.2-1.7,0.2-1.8,1
			c-0.3,2.3-1.7,4.1-3.7,5.1c-2.2,1.1-4.8,0.9-7.1,0.2c-0.8-0.3-1.6,0.3-1.8,1C543.6,1542.9,544.1,1543.7,544.9,1544L544.9,1544z"/>
	</g>
</g>
<g id="Rivier_detail_4_8_">
	<g>
		<path class="st15" d="M576.9,1557c3.1,1,6.5,1,9.4-0.5c2.7-1.3,4.7-3.9,5.1-6.9c0.1-0.8-0.2-1.6-1-1.8c-0.7-0.2-1.7,0.2-1.8,1
			c-0.3,2.3-1.7,4.1-3.7,5.1c-2.2,1.1-4.8,0.9-7.1,0.2c-0.8-0.3-1.6,0.3-1.8,1C575.6,1555.9,576.1,1556.7,576.9,1557L576.9,1557z"/>
	</g>
</g>
<g id="Rivier_detail_5_20_">
	<g>
		<path class="st15" d="M578.9,1534c3.1,1,6.5,1,9.4-0.5c2.7-1.3,4.7-3.9,5.1-6.9c0.1-0.8-0.2-1.6-1-1.8c-0.7-0.2-1.7,0.2-1.8,1
			c-0.3,2.3-1.7,4.1-3.7,5.1c-2.2,1.1-4.8,0.9-7.1,0.2c-0.8-0.3-1.6,0.3-1.8,1C577.6,1532.9,578.1,1533.7,578.9,1534L578.9,1534z"/>
	</g>
</g>
<g id="Rivier_detail_3_5_">
	<g>
		<path class="st15" d="M533.9,1577c3.1,1,6.5,1,9.4-0.5c2.7-1.3,4.7-3.9,5.1-6.9c0.1-0.8-0.2-1.6-1-1.8c-0.7-0.2-1.7,0.2-1.8,1
			c-0.3,2.3-1.7,4.1-3.7,5.1c-2.2,1.1-4.8,0.9-7.1,0.2c-0.8-0.3-1.6,0.3-1.8,1C532.6,1575.9,533.1,1576.7,533.9,1577L533.9,1577z"/>
	</g>
</g>
<g id="Rivier_detail_2_10_">
	<g>
		<path class="st15" d="M613.7,1455c3.1,1,6.5,1,9.4-0.5c2.7-1.3,4.7-3.9,5.1-6.9c0.1-0.8-0.2-1.6-1-1.8c-0.7-0.2-1.7,0.2-1.8,1
			c-0.3,2.3-1.7,4.1-3.7,5.1c-2.2,1.1-4.8,0.9-7.1,0.2c-0.8-0.3-1.6,0.3-1.8,1C612.5,1453.9,613,1454.7,613.7,1455L613.7,1455z"/>
	</g>
</g>
<g id="Rivier_detail_1_10_">
	<g>
		<path class="st15" d="M605.7,1482c3.1,1,6.5,1,9.4-0.5c2.7-1.3,4.7-3.9,5.1-6.9c0.1-0.8-0.2-1.6-1-1.8c-0.7-0.2-1.7,0.2-1.8,1
			c-0.3,2.3-1.7,4.1-3.7,5.1c-2.2,1.1-4.8,0.9-7.1,0.2c-0.8-0.3-1.6,0.3-1.8,1C604.5,1480.9,605,1481.7,605.7,1482L605.7,1482z"/>
	</g>
</g>
<g id="Rivier_detail_8_9_">
	<g>
		<path class="st15" d="M458.5,1540.1c3.1,1,6.5,1,9.4-0.5c2.7-1.3,4.7-3.9,5.1-6.9c0.1-0.8-0.2-1.6-1-1.8c-0.7-0.2-1.7,0.2-1.8,1
			c-0.3,2.3-1.7,4.1-3.7,5.1c-2.2,1.1-4.8,0.9-7.1,0.2c-0.8-0.3-1.6,0.3-1.8,1C457.2,1539.1,457.7,1539.9,458.5,1540.1L458.5,1540.1
			z"/>
	</g>
</g>
<g id="Rivier_detail_10_4_">
	<g>
		<path class="st15" d="M518.4,1497.3c3.1,1,6.5,1,9.4-0.5c2.7-1.3,4.7-3.9,5.1-6.9c0.1-0.8-0.2-1.6-1-1.8c-0.7-0.2-1.7,0.2-1.8,1
			c-0.3,2.3-1.7,4.1-3.7,5.1c-2.2,1.1-4.8,0.9-7.1,0.2c-0.8-0.3-1.6,0.3-1.8,1C517.1,1496.2,517.6,1497,518.4,1497.3L518.4,1497.3z"
			/>
	</g>
</g>
<g id="Rivier_detail_2_9_">
	<g>
		<path class="st15" d="M488.3,1625.9c3.1,1,6.5,1,9.4-0.5c2.7-1.3,4.7-3.9,5.1-6.9c0.1-0.8-0.2-1.6-1-1.8c-0.7-0.2-1.7,0.2-1.8,1
			c-0.3,2.3-1.7,4.1-3.7,5.1c-2.2,1.1-4.8,0.9-7.1,0.2c-0.8-0.3-1.6,0.3-1.8,1C487.1,1624.8,487.6,1625.6,488.3,1625.9L488.3,1625.9
			z"/>
	</g>
</g>
<g id="Rivier_detail_1_9_">
	<g>
		<path class="st15" d="M480.3,1652.9c3.1,1,6.5,1,9.4-0.5c2.7-1.3,4.7-3.9,5.1-6.9c0.1-0.8-0.2-1.6-1-1.8c-0.7-0.2-1.7,0.2-1.8,1
			c-0.3,2.3-1.7,4.1-3.7,5.1c-2.2,1.1-4.8,0.9-7.1,0.2c-0.8-0.3-1.6,0.3-1.8,1C479.1,1651.8,479.6,1652.6,480.3,1652.9L480.3,1652.9
			z"/>
	</g>
</g>
<g id="Rivier_detail_6_8_">
	<g>
		<path class="st15" d="M382.1,1704.7c3.1,1,6.5,1,9.4-0.5c2.7-1.3,4.7-3.9,5.1-6.9c0.1-0.8-0.2-1.6-1-1.8c-0.7-0.2-1.7,0.2-1.8,1
			c-0.3,2.3-1.7,4.1-3.7,5.1c-2.2,1.1-4.8,0.9-7.1,0.2c-0.8-0.3-1.6,0.3-1.8,1C380.8,1703.6,381.3,1704.4,382.1,1704.7L382.1,1704.7
			z"/>
	</g>
</g>
<g id="Rivier_detail_4_7_">
	<g>
		<path class="st15" d="M414.1,1717.7c3.1,1,6.5,1,9.4-0.5c2.7-1.3,4.7-3.9,5.1-6.9c0.1-0.8-0.2-1.6-1-1.8c-0.7-0.2-1.7,0.2-1.8,1
			c-0.3,2.3-1.7,4.1-3.7,5.1c-2.2,1.1-4.8,0.9-7.1,0.2c-0.8-0.3-1.6,0.3-1.8,1C412.8,1716.6,413.3,1717.4,414.1,1717.7L414.1,1717.7
			z"/>
	</g>
</g>
<g id="Rivier_detail_5_18_">
	<g>
		<path class="st15" d="M416.1,1694.7c3.1,1,6.5,1,9.4-0.5c2.7-1.3,4.7-3.9,5.1-6.9c0.1-0.8-0.2-1.6-1-1.8c-0.7-0.2-1.7,0.2-1.8,1
			c-0.3,2.3-1.7,4.1-3.7,5.1c-2.2,1.1-4.8,0.9-7.1,0.2c-0.8-0.3-1.6,0.3-1.8,1C414.8,1693.6,415.3,1694.4,416.1,1694.7L416.1,1694.7
			z"/>
	</g>
</g>
<g id="Rivier_detail_2_8_">
	<g>
		<path class="st15" d="M450.9,1615.7c3.1,1,6.5,1,9.4-0.5c2.7-1.3,4.7-3.9,5.1-6.9c0.1-0.8-0.2-1.6-1-1.8c-0.7-0.2-1.7,0.2-1.8,1
			c-0.3,2.3-1.7,4.1-3.7,5.1c-2.2,1.1-4.8,0.9-7.1,0.2c-0.8-0.3-1.6,0.3-1.8,1C449.7,1614.6,450.2,1615.4,450.9,1615.7L450.9,1615.7
			z"/>
	</g>
</g>
<g id="Rivier_detail_1_8_">
	<g>
		<path class="st15" d="M442.9,1642.7c3.1,1,6.5,1,9.4-0.5c2.7-1.3,4.7-3.9,5.1-6.9c0.1-0.8-0.2-1.6-1-1.8c-0.7-0.2-1.7,0.2-1.8,1
			c-0.3,2.3-1.7,4.1-3.7,5.1c-2.2,1.1-4.8,0.9-7.1,0.2c-0.8-0.3-1.6,0.3-1.8,1C441.7,1641.6,442.2,1642.4,442.9,1642.7L442.9,1642.7
			z"/>
	</g>
</g>
<g id="Rivier_detail_8_7_">
	<g>
		<path class="st15" d="M295.7,1700.8c3.1,1,6.5,1,9.4-0.5c2.7-1.3,4.7-3.9,5.1-6.9c0.1-0.8-0.2-1.6-1-1.8c-0.7-0.2-1.7,0.2-1.8,1
			c-0.3,2.3-1.7,4.1-3.7,5.1c-2.2,1.1-4.8,0.9-7.1,0.2c-0.8-0.3-1.6,0.3-1.8,1C294.4,1699.8,294.9,1700.6,295.7,1700.8L295.7,1700.8
			z"/>
	</g>
</g>
<g id="Rivier_detail_9_7_">
	<g>
		<path class="st15" d="M323.9,1704c3.1,1,6.5,1,9.4-0.5c2.7-1.3,4.7-3.9,5.1-6.9c0.1-0.8-0.2-1.6-1-1.8c-0.7-0.2-1.7,0.2-1.8,1
			c-0.3,2.3-1.7,4.1-3.7,5.1c-2.2,1.1-4.8,0.9-7.1,0.2c-0.8-0.3-1.6,0.3-1.8,1C322.6,1703,323.1,1703.7,323.9,1704L323.9,1704z"/>
	</g>
</g>
<g id="Rivier_detail_2_7_">
	<g>
		<path class="st15" d="M325.5,1786.6c3.1,1,6.5,1,9.4-0.5c2.7-1.3,4.7-3.9,5.1-6.9c0.1-0.8-0.2-1.6-1-1.8c-0.7-0.2-1.7,0.2-1.8,1
			c-0.3,2.3-1.7,4.1-3.7,5.1c-2.2,1.1-4.8,0.9-7.1,0.2c-0.8-0.3-1.6,0.3-1.8,1C324.3,1785.5,324.8,1786.3,325.5,1786.6L325.5,1786.6
			z"/>
	</g>
</g>
<g id="Rivier_detail_7_3_">
	<g>
		<path class="st15" d="M653.5,1548.9c3.1,1,6.5,1,9.4-0.5c2.7-1.3,4.7-3.9,5.1-6.9c0.1-0.8-0.2-1.6-1-1.8c-0.7-0.2-1.7,0.2-1.8,1
			c-0.3,2.3-1.7,4.1-3.7,5.1c-2.2,1.1-4.8,0.9-7.1,0.2c-0.8-0.3-1.6,0.3-1.8,1C652.3,1547.9,652.8,1548.6,653.5,1548.9L653.5,1548.9
			z"/>
	</g>
</g>
<g id="Rivier_detail_9_3_">
	<g>
		<path class="st15" d="M704.8,1517.1c3.1,1,6.5,1,9.4-0.5c2.7-1.3,4.7-3.9,5.1-6.9c0.1-0.8-0.2-1.6-1-1.8c-0.7-0.2-1.7,0.2-1.8,1
			c-0.3,2.3-1.7,4.1-3.7,5.1c-2.2,1.1-4.8,0.9-7.1,0.2c-0.8-0.3-1.6,0.3-1.8,1C703.5,1516.1,704,1516.8,704.8,1517.1L704.8,1517.1z"
			/>
	</g>
</g>
<g id="Rivier_detail_5_17_">
	<g>
		<path class="st15" d="M615.5,1594.1c3.1,1,6.5,1,9.4-0.5c2.7-1.3,4.7-3.9,5.1-6.9c0.1-0.8-0.2-1.6-1-1.8c-0.7-0.2-1.7,0.2-1.8,1
			c-0.3,2.3-1.7,4.1-3.7,5.1c-2.2,1.1-4.8,0.9-7.1,0.2c-0.8-0.3-1.6,0.3-1.8,1C614.2,1593,614.7,1593.8,615.5,1594.1L615.5,1594.1z"
			/>
	</g>
</g>
<g id="Rivier_detail_5_15_">
	<g>
		<path class="st15" d="M383.9,1610.7c3.1,1,6.5,1,9.4-0.5c2.7-1.3,4.7-3.9,5.1-6.9c0.1-0.8-0.2-1.6-1-1.8c-0.7-0.2-1.7,0.2-1.8,1
			c-0.3,2.3-1.7,4.1-3.7,5.1c-2.2,1.1-4.8,0.9-7.1,0.2c-0.8-0.3-1.6,0.3-1.8,1C382.6,1609.6,383.1,1610.4,383.9,1610.7L383.9,1610.7
			z"/>
	</g>
</g>
<g id="Rivier_detail_5_14_">
	<g>
		<path class="st15" d="M292.5,1642.7c3.1,1,6.5,1,9.4-0.5c2.7-1.3,4.7-3.9,5.1-6.9c0.1-0.8-0.2-1.6-1-1.8c-0.7-0.2-1.7,0.2-1.8,1
			c-0.3,2.3-1.7,4.1-3.7,5.1c-2.2,1.1-4.8,0.9-7.1,0.2c-0.8-0.3-1.6,0.3-1.8,1C291.2,1641.6,291.7,1642.4,292.5,1642.7L292.5,1642.7
			z"/>
	</g>
</g>
<g id="Rivier_detail_6_7_">
	<g>
		<path class="st15" d="M175.1,1699.3c3.1,1,6.5,1,9.4-0.5c2.7-1.3,4.7-3.9,5.1-6.9c0.1-0.8-0.2-1.6-1-1.8c-0.7-0.2-1.7,0.2-1.8,1
			c-0.3,2.3-1.7,4.1-3.7,5.1c-2.2,1.1-4.8,0.9-7.1,0.2c-0.8-0.3-1.6,0.3-1.8,1C173.8,1698.2,174.3,1699,175.1,1699.3L175.1,1699.3z"
			/>
	</g>
</g>
<g id="Rivier_detail_4_5_">
	<g>
		<path class="st15" d="M207.1,1712.3c3.1,1,6.5,1,9.4-0.5c2.7-1.3,4.7-3.9,5.1-6.9c0.1-0.8-0.2-1.6-1-1.8c-0.7-0.2-1.7,0.2-1.8,1
			c-0.3,2.3-1.7,4.1-3.7,5.1c-2.2,1.1-4.8,0.9-7.1,0.2c-0.8-0.3-1.6,0.3-1.8,1C205.8,1711.2,206.3,1712,207.1,1712.3L207.1,1712.3z"
			/>
	</g>
</g>
<g id="Rivier_detail_5_12_">
	<g>
		<path class="st15" d="M209.1,1689.3c3.1,1,6.5,1,9.4-0.5c2.7-1.3,4.7-3.9,5.1-6.9c0.1-0.8-0.2-1.6-1-1.8c-0.7-0.2-1.7,0.2-1.8,1
			c-0.3,2.3-1.7,4.1-3.7,5.1c-2.2,1.1-4.8,0.9-7.1,0.2c-0.8-0.3-1.6,0.3-1.8,1C207.8,1688.2,208.3,1689,209.1,1689.3L209.1,1689.3z"
			/>
	</g>
</g>
<g id="Rivier_detail_7_10_">
	<g>
		<path class="st15" d="M627.3,1370.2c3.1,1,6.5,1,9.4-0.5c2.7-1.3,4.7-3.9,5.1-6.9c0.1-0.8-0.2-1.6-1-1.8c-0.7-0.2-1.7,0.2-1.8,1
			c-0.3,2.3-1.7,4.1-3.7,5.1c-2.2,1.1-4.8,0.9-7.1,0.2c-0.8-0.3-1.6,0.3-1.8,1C626.1,1369.2,626.6,1369.9,627.3,1370.2L627.3,1370.2
			z"/>
	</g>
</g>
<g id="Rivier_detail_8_15_">
	<g>
		<path class="st15" d="M650.4,1335.2c3.1,1,6.5,1,9.4-0.5c2.7-1.3,4.7-3.9,5.1-6.9c0.1-0.8-0.2-1.6-1-1.8c-0.7-0.2-1.7,0.2-1.8,1
			c-0.3,2.3-1.7,4.1-3.7,5.1c-2.2,1.1-4.8,0.9-7.1,0.2c-0.8-0.3-1.6,0.3-1.8,1C649.1,1334.2,649.6,1335,650.4,1335.2L650.4,1335.2z"
			/>
	</g>
</g>
<g id="Rivier_detail_9_13_">
	<g>
		<path class="st15" d="M678.6,1338.4c3.1,1,6.5,1,9.4-0.5c2.7-1.3,4.7-3.9,5.1-6.9c0.1-0.8-0.2-1.6-1-1.8c-0.7-0.2-1.7,0.2-1.8,1
			c-0.3,2.3-1.7,4.1-3.7,5.1c-2.2,1.1-4.8,0.9-7.1,0.2c-0.8-0.3-1.6,0.3-1.8,1C677.3,1337.4,677.8,1338.1,678.6,1338.4L678.6,1338.4
			z"/>
	</g>
</g>
<g id="Rivier_detail_6_15_">
	<g>
		<path class="st15" d="M555.3,1425.3c3.1,1,6.5,1,9.4-0.5c2.7-1.3,4.7-3.9,5.1-6.9c0.1-0.8-0.2-1.6-1-1.8c-0.7-0.2-1.7,0.2-1.8,1
			c-0.3,2.3-1.7,4.1-3.7,5.1c-2.2,1.1-4.8,0.9-7.1,0.2c-0.8-0.3-1.6,0.3-1.8,1C554,1424.2,554.5,1425,555.3,1425.3L555.3,1425.3z"/>
	</g>
</g>
<g id="Rivier_detail_4_13_">
	<g>
		<path class="st15" d="M587.3,1438.3c3.1,1,6.5,1,9.4-0.5c2.7-1.3,4.7-3.9,5.1-6.9c0.1-0.8-0.2-1.6-1-1.8c-0.7-0.2-1.7,0.2-1.8,1
			c-0.3,2.3-1.7,4.1-3.7,5.1c-2.2,1.1-4.8,0.9-7.1,0.2c-0.8-0.3-1.6,0.3-1.8,1C586,1437.2,586.5,1438,587.3,1438.3L587.3,1438.3z"/>
	</g>
</g>
<g id="Rivier_detail_5_28_">
	<g>
		<path class="st15" d="M589.3,1415.3c3.1,1,6.5,1,9.4-0.5c2.7-1.3,4.7-3.9,5.1-6.9c0.1-0.8-0.2-1.6-1-1.8c-0.7-0.2-1.7,0.2-1.8,1
			c-0.3,2.3-1.7,4.1-3.7,5.1c-2.2,1.1-4.8,0.9-7.1,0.2c-0.8-0.3-1.6,0.3-1.8,1C588,1414.2,588.5,1415,589.3,1415.3L589.3,1415.3z"/>
	</g>
</g>
<g id="Rivier_detail_3_7_">
	<g>
		<path class="st15" d="M544.3,1458.3c3.1,1,6.5,1,9.4-0.5c2.7-1.3,4.7-3.9,5.1-6.9c0.1-0.8-0.2-1.6-1-1.8c-0.7-0.2-1.7,0.2-1.8,1
			c-0.3,2.3-1.7,4.1-3.7,5.1c-2.2,1.1-4.8,0.9-7.1,0.2c-0.8-0.3-1.6,0.3-1.8,1C543,1457.2,543.5,1458,544.3,1458.3L544.3,1458.3z"/>
	</g>
</g>
<g id="Rivier_detail_7_8_">
	<g>
		<path class="st15" d="M386.7,1492.9c3.1,1,6.5,1,9.4-0.5c2.7-1.3,4.7-3.9,5.1-6.9c0.1-0.8-0.2-1.6-1-1.8c-0.7-0.2-1.7,0.2-1.8,1
			c-0.3,2.3-1.7,4.1-3.7,5.1c-2.2,1.1-4.8,0.9-7.1,0.2c-0.8-0.3-1.6,0.3-1.8,1C385.5,1491.9,386,1492.6,386.7,1492.9L386.7,1492.9z"
			/>
	</g>
</g>
<g id="Rivier_detail_9_11_">
	<g>
		<path class="st15" d="M438,1461.1c3.1,1,6.5,1,9.4-0.5c2.7-1.3,4.7-3.9,5.1-6.9c0.1-0.8-0.2-1.6-1-1.8c-0.7-0.2-1.7,0.2-1.8,1
			c-0.3,2.3-1.7,4.1-3.7,5.1c-2.2,1.1-4.8,0.9-7.1,0.2c-0.8-0.3-1.6,0.3-1.8,1C436.7,1460.1,437.2,1460.8,438,1461.1L438,1461.1z"/>
	</g>
</g>
<g id="Rivier_detail_6_13_">
	<g>
		<path class="st15" d="M314.7,1548c3.1,1,6.5,1,9.4-0.5c2.7-1.3,4.7-3.9,5.1-6.9c0.1-0.8-0.2-1.6-1-1.8c-0.7-0.2-1.7,0.2-1.8,1
			c-0.3,2.3-1.7,4.1-3.7,5.1c-2.2,1.1-4.8,0.9-7.1,0.2c-0.8-0.3-1.6,0.3-1.8,1C313.4,1546.9,313.9,1547.7,314.7,1548L314.7,1548z"/>
	</g>
</g>
<g id="Rivier_detail_5_26_">
	<g>
		<path class="st15" d="M348.7,1538c3.1,1,6.5,1,9.4-0.5c2.7-1.3,4.7-3.9,5.1-6.9c0.1-0.8-0.2-1.6-1-1.8c-0.7-0.2-1.7,0.2-1.8,1
			c-0.3,2.3-1.7,4.1-3.7,5.1c-2.2,1.1-4.8,0.9-7.1,0.2c-0.8-0.3-1.6,0.3-1.8,1C347.4,1536.9,347.9,1537.7,348.7,1538L348.7,1538z"/>
	</g>
</g>
<g id="Rivier_detail_3_1_">
	<g>
		<path class="st15" d="M303.7,1581c3.1,1,6.5,1,9.4-0.5c2.7-1.3,4.7-3.9,5.1-6.9c0.1-0.8-0.2-1.6-1-1.8c-0.7-0.2-1.7,0.2-1.8,1
			c-0.3,2.3-1.7,4.1-3.7,5.1c-2.2,1.1-4.8,0.9-7.1,0.2c-0.8-0.3-1.6,0.3-1.8,1C302.4,1579.9,302.9,1580.7,303.7,1581L303.7,1581z"/>
	</g>
</g>
<g id="Rivier_detail_8_10_">
	<g>
		<path class="st15" d="M247,1618.6c3.1,1,6.5,1,9.4-0.5c2.7-1.3,4.7-3.9,5.1-6.9c0.1-0.8-0.2-1.6-1-1.8c-0.7-0.2-1.7,0.2-1.8,1
			c-0.3,2.3-1.7,4.1-3.7,5.1c-2.2,1.1-4.8,0.9-7.1,0.2c-0.8-0.3-1.6,0.3-1.8,1C245.7,1617.6,246.2,1618.4,247,1618.6L247,1618.6z"/>
	</g>
</g>
<g id="Rivier_detail_2_13_">
	<g>
		<path class="st15" d="M148.1,1601.2c3.1,1,6.5,1,9.4-0.5c2.7-1.3,4.7-3.9,5.1-6.9c0.1-0.8-0.2-1.6-1-1.8c-0.7-0.2-1.7,0.2-1.8,1
			c-0.3,2.3-1.7,4.1-3.7,5.1c-2.2,1.1-4.8,0.9-7.1,0.2c-0.8-0.3-1.6,0.3-1.8,1C146.9,1600.1,147.4,1600.9,148.1,1601.2L148.1,1601.2
			z"/>
	</g>
</g>
<g id="Rivier_detail_1_7_">
	<g>
		<path class="st15" d="M140.1,1628.2c3.1,1,6.5,1,9.4-0.5c2.7-1.3,4.7-3.9,5.1-6.9c0.1-0.8-0.2-1.6-1-1.8c-0.7-0.2-1.7,0.2-1.8,1
			c-0.3,2.3-1.7,4.1-3.7,5.1c-2.2,1.1-4.8,0.9-7.1,0.2c-0.8-0.3-1.6,0.3-1.8,1C138.9,1627.1,139.4,1627.9,140.1,1628.2L140.1,1628.2
			z"/>
	</g>
</g>
<g id="Rivier_detail_5_23_">
	<g>
		<path class="st15" d="M440.7,1502.8c3.1,1,6.5,1,9.4-0.5c2.7-1.3,4.7-3.9,5.1-6.9c0.1-0.8-0.2-1.6-1-1.8c-0.7-0.2-1.7,0.2-1.8,1
			c-0.3,2.3-1.7,4.1-3.7,5.1c-2.2,1.1-4.8,0.9-7.1,0.2c-0.8-0.3-1.6,0.3-1.8,1C439.4,1501.7,439.9,1502.5,440.7,1502.8L440.7,1502.8
			z"/>
	</g>
</g>
<g id="Rivier_detail_5_16_">
	<g>
		<path class="st15" d="M212.8,1601.9c3.1,1,6.5,1,9.4-0.5c2.7-1.3,4.7-3.9,5.1-6.9c0.1-0.8-0.2-1.6-1-1.8c-0.7-0.2-1.7,0.2-1.8,1
			c-0.3,2.3-1.7,4.1-3.7,5.1c-2.2,1.1-4.8,0.9-7.1,0.2c-0.8-0.3-1.6,0.3-1.8,1C211.5,1600.8,212,1601.6,212.8,1601.9L212.8,1601.9z"
			/>
	</g>
</g>
<g id="Rivier_detail_7_15_">
	<g>
		<path class="st15" d="M100,1681.7c3.1,1,6.5,1,9.4-0.5c2.7-1.3,4.7-3.9,5.1-6.9c0.1-0.8-0.2-1.6-1-1.8c-0.7-0.2-1.7,0.2-1.8,1
			c-0.3,2.3-1.7,4.1-3.7,5.1c-2.2,1.1-4.8,0.9-7.1,0.2c-0.8-0.3-1.6,0.3-1.8,1C98.8,1680.7,99.3,1681.4,100,1681.7L100,1681.7z"/>
	</g>
</g>
<g id="Rivier_detail_8_21_">
	<g>
		<path class="st15" d="M123.1,1646.7c3.1,1,6.5,1,9.4-0.5c2.7-1.3,4.7-3.9,5.1-6.9c0.1-0.8-0.2-1.6-1-1.8c-0.7-0.2-1.7,0.2-1.8,1
			c-0.3,2.3-1.7,4.1-3.7,5.1c-2.2,1.1-4.8,0.9-7.1,0.2c-0.8-0.3-1.6,0.3-1.8,1C121.8,1645.7,122.3,1646.5,123.1,1646.7L123.1,1646.7
			z"/>
	</g>
</g>
<g id="Rivier_detail_9_19_">
	<g>
		<path class="st15" d="M151.3,1649.9c3.1,1,6.5,1,9.4-0.5c2.7-1.3,4.7-3.9,5.1-6.9c0.1-0.8-0.2-1.6-1-1.8c-0.7-0.2-1.7,0.2-1.8,1
			c-0.3,2.3-1.7,4.1-3.7,5.1c-2.2,1.1-4.8,0.9-7.1,0.2c-0.8-0.3-1.6,0.3-1.8,1C150,1648.9,150.5,1649.6,151.3,1649.9L151.3,1649.9z"
			/>
	</g>
</g>
<g id="Rivier_detail_10_9_">
	<g>
		<path class="st15" d="M183,1603.9c3.1,1,6.5,1,9.4-0.5c2.7-1.3,4.7-3.9,5.1-6.9c0.1-0.8-0.2-1.6-1-1.8c-0.7-0.2-1.7,0.2-1.8,1
			c-0.3,2.3-1.7,4.1-3.7,5.1c-2.2,1.1-4.8,0.9-7.1,0.2c-0.8-0.3-1.6,0.3-1.8,1C181.7,1602.8,182.2,1603.6,183,1603.9L183,1603.9z"/>
	</g>
</g>
<g id="Rivier_detail_6_23_">
	<g>
		<path class="st15" d="M156.8,1840c3.1,1,6.5,1,9.4-0.5c2.7-1.3,4.7-3.9,5.1-6.9c0.1-0.8-0.2-1.6-1-1.8c-0.7-0.2-1.7,0.2-1.8,1
			c-0.3,2.3-1.7,4.1-3.7,5.1c-2.2,1.1-4.8,0.9-7.1,0.2c-0.8-0.3-1.6,0.3-1.8,1C155.5,1838.9,156,1839.7,156.8,1840L156.8,1840z"/>
	</g>
</g>
<g id="Rivier_detail_3_12_">
	<g>
		<path class="st15" d="M145.8,1873c3.1,1,6.5,1,9.4-0.5c2.7-1.3,4.7-3.9,5.1-6.9c0.1-0.8-0.2-1.6-1-1.8c-0.7-0.2-1.7,0.2-1.8,1
			c-0.3,2.3-1.7,4.1-3.7,5.1c-2.2,1.1-4.8,0.9-7.1,0.2c-0.8-0.3-1.6,0.3-1.8,1C144.5,1871.9,145,1872.7,145.8,1873L145.8,1873z"/>
	</g>
</g>
<g id="Rivier_detail_2_25_">
	<g>
		<path class="st15" d="M153,1732.5c3.1,1,6.5,1,9.4-0.5c2.7-1.3,4.7-3.9,5.1-6.9c0.1-0.8-0.2-1.6-1-1.8c-0.7-0.2-1.7,0.2-1.8,1
			c-0.3,2.3-1.7,4.1-3.7,5.1c-2.2,1.1-4.8,0.9-7.1,0.2c-0.8-0.3-1.6,0.3-1.8,1C151.8,1731.4,152.3,1732.2,153,1732.5L153,1732.5z"/>
	</g>
</g>
<g id="Rivier_detail_1_23_">
	<g>
		<path class="st15" d="M145,1759.5c3.1,1,6.5,1,9.4-0.5c2.7-1.3,4.7-3.9,5.1-6.9c0.1-0.8-0.2-1.6-1-1.8c-0.7-0.2-1.7,0.2-1.8,1
			c-0.3,2.3-1.7,4.1-3.7,5.1c-2.2,1.1-4.8,0.9-7.1,0.2c-0.8-0.3-1.6,0.3-1.8,1C143.8,1758.4,144.3,1759.2,145,1759.5L145,1759.5z"/>
	</g>
</g>
<g id="Rivier_detail_8_20_">
	<g>
		<path class="st15" d="M11.3,1872.6c3.1,1,6.5,1,9.4-0.5c2.7-1.3,4.7-3.9,5.1-6.9c0.1-0.8-0.2-1.6-1-1.8c-0.7-0.2-1.7,0.2-1.8,1
			c-0.3,2.3-1.7,4.1-3.7,5.1c-2.2,1.1-4.8,0.9-7.1,0.2c-0.8-0.3-1.6,0.3-1.8,1C10,1871.6,10.5,1872.4,11.3,1872.6L11.3,1872.6z"/>
	</g>
</g>
<g id="Rivier_detail_9_18_">
	<g>
		<path class="st15" d="M39.5,1875.8c3.1,1,6.5,1,9.4-0.5c2.7-1.3,4.7-3.9,5.1-6.9c0.1-0.8-0.2-1.6-1-1.8c-0.7-0.2-1.7,0.2-1.8,1
			c-0.3,2.3-1.7,4.1-3.7,5.1c-2.2,1.1-4.8,0.9-7.1,0.2c-0.8-0.3-1.6,0.3-1.8,1C38.2,1874.8,38.7,1875.5,39.5,1875.8L39.5,1875.8z"/>
	</g>
</g>
<g id="Rivier_detail_2_24_">
	<g>
		<path class="st15" d="M37.7,1684.3c3.1,1,6.5,1,9.4-0.5c2.7-1.3,4.7-3.9,5.1-6.9c0.1-0.8-0.2-1.6-1-1.8c-0.7-0.2-1.7,0.2-1.8,1
			c-0.3,2.3-1.7,4.1-3.7,5.1c-2.2,1.1-4.8,0.9-7.1,0.2c-0.8-0.3-1.6,0.3-1.8,1C36.5,1683.2,37,1684,37.7,1684.3L37.7,1684.3z"/>
	</g>
</g>
<g id="Rivier_detail_1_22_">
	<g>
		<path class="st15" d="M29.7,1711.3c3.1,1,6.5,1,9.4-0.5c2.7-1.3,4.7-3.9,5.1-6.9c0.1-0.8-0.2-1.6-1-1.8c-0.7-0.2-1.7,0.2-1.8,1
			c-0.3,2.3-1.7,4.1-3.7,5.1c-2.2,1.1-4.8,0.9-7.1,0.2c-0.8-0.3-1.6,0.3-1.8,1C28.5,1710.2,29,1711,29.7,1711.3L29.7,1711.3z"/>
	</g>
</g>
<g id="Rivier_detail_7_13_">
	<g>
		<path class="st15" d="M77.5,1778.2c3.1,1,6.5,1,9.4-0.5c2.7-1.3,4.7-3.9,5.1-6.9c0.1-0.8-0.2-1.6-1-1.8c-0.7-0.2-1.7,0.2-1.8,1
			c-0.3,2.3-1.7,4.1-3.7,5.1c-2.2,1.1-4.8,0.9-7.1,0.2c-0.8-0.3-1.6,0.3-1.8,1C76.3,1777.2,76.8,1777.9,77.5,1778.2L77.5,1778.2z"/>
	</g>
</g>
<g id="Rivier_detail_9_16_">
	<g>
		<path class="st15" d="M128.8,1746.4c3.1,1,6.5,1,9.4-0.5c2.7-1.3,4.7-3.9,5.1-6.9c0.1-0.8-0.2-1.6-1-1.8c-0.7-0.2-1.7,0.2-1.8,1
			c-0.3,2.3-1.7,4.1-3.7,5.1c-2.2,1.1-4.8,0.9-7.1,0.2c-0.8-0.3-1.6,0.3-1.8,1C127.5,1745.4,128,1746.1,128.8,1746.4L128.8,1746.4z"
			/>
	</g>
</g>
<g id="Rivier_detail_5_39_">
	<g>
		<path class="st15" d="M39.5,1823.3c3.1,1,6.5,1,9.4-0.5c2.7-1.3,4.7-3.9,5.1-6.9c0.1-0.8-0.2-1.6-1-1.8c-0.7-0.2-1.7,0.2-1.8,1
			c-0.3,2.3-1.7,4.1-3.7,5.1c-2.2,1.1-4.8,0.9-7.1,0.2c-0.8-0.3-1.6,0.3-1.8,1C38.2,1822.2,38.7,1823,39.5,1823.3L39.5,1823.3z"/>
	</g>
</g>
<g id="Rivier_detail_5_38_">
	<g>
		<path class="st15" d="M42.3,1917.5c3.1,1,6.5,1,9.4-0.5c2.7-1.3,4.7-3.9,5.1-6.9c0.1-0.8-0.2-1.6-1-1.8c-0.7-0.2-1.7,0.2-1.8,1
			c-0.3,2.3-1.7,4.1-3.7,5.1c-2.2,1.1-4.8,0.9-7.1,0.2c-0.8-0.3-1.6,0.3-1.8,1C41,1916.4,41.5,1917.2,42.3,1917.5L42.3,1917.5z"/>
	</g>
</g>
</svg>
